<svg xmlns="http://www.w3.org/2000/svg" viewBox="0 0 705.86 625.31"><defs><style>.cls-1{fill:#068e57;}.cls-2{fill:#0d2b2c;}</style></defs><title>Recurso 6</title><g id="Capa_2" data-name="Capa 2"><g id="Capa_1-2" data-name="Capa 1"><path class="cls-1" d="M231.34,398.79l-9.6-4.29C188.93,380,154.87,373.11,119,377.74c-3.88.5-8.48,1.13-11.22,3.47-3.94,3.38-7.87,8-9.29,12.79-1.88,6.35,2.2,11.89,8.16,14.27a162,162,0,0,0,23.53,7.12c23.74,5.49,47.84,9.68,71.3,16.15,24.27,6.69,46.48,18.06,58.54,41.83,11.87,23.4,11,48.34,5,73.17-10.3,42.48-40.88,64-80.71,72.47-60.42,12.81-119.62,5.6-177-17.17-4.19-1.66-6.65-3.44-5-8.75,6.91-22.21,13.45-44.53,20.18-66.79a28.32,28.32,0,0,1,2.08-4.1C36.32,527,47.63,532,59.29,536.14a209.26,209.26,0,0,0,74.38,12,93.77,93.77,0,0,0,22.58-3.37c8.06-2.2,13.13-8,13-16.86-.13-8.23-6.05-12-13-13.73-24.5-6-49.34-10.74-73.56-17.65-16.2-4.62-32.86-10-47-18.75-30.62-18.84-38-49.41-35-83,4.53-50.59,41.42-88,94.64-95.17,51.3-6.92,101.33-1.38,149.25,19.21,11.19,4.81,11.21,4.84,7.6,16.5q-8.81,28.44-17.71,56.86A60.53,60.53,0,0,1,231.34,398.79Z"/><path class="cls-2" d="M529.56,231.89c24.92-18.36,55.79-28.95,89.07-37.35-48.84-4.44-89.76,4.25-125.35,24.67-1.18-9.78-2.07-19.3.24-28.08,5.77-21.95,13.15-43.52,19.51-65.34,1.15-3.92.48-8.28.65-12.44l-3.07-.52L471.34,180l-40.65-25.5c11,22.65,23.46,42.76,29.83,63.19,6.63,21.27-3.68,40-16.39,59.19-20.15-22.74-47.59-37.32-75.68-51.68-14.7-7.51-27.88-16.72-41.69-25.21-2.34-1.44-4.36-3.14-6.53-4.72a16.14,16.14,0,0,0,5.22,10c15.07,14.23,29.44,28.92,45.93,42.33,24.94,20.29,41,49.45,34.71,66.58-3.74,10.25,1.21-3-14.57,31.49h-.06v.14l-.12.24h.12v8q0,8.88,0,17.76h0q0,41.64-.16,83.28c-.06,17.58,0,35.2-1,52.74-1.46,24.55-17.89,37.69-42.39,35.3a69.06,69.06,0,0,1-38.94-16.75c-11,19.28-21.82,38.07-32.25,57.09-.89,1.62.23,5.47,1.72,7.08,12.74,13.85,27.87,23.91,46.35,28.67a187.14,187.14,0,0,0,71.78,4.41c30.26-4,55.58-16.82,72.77-43.36,15.51-24,19-50.69,19.08-78.22q.13-63.75,0-127.5h-.06l0-21.2c0-2.41-.18-4.82-.3-7.28l.05,0h-.93c-15.67-56.81-11.07-42-3.16-59.84,13.28-30,43.19-43.85,87.26-45.86a75.56,75.56,0,0,0,9.16-.92,52.68,52.68,0,0,0,6.37-1.88l-.81-3Z"/><path class="cls-1" d="M553.89,0c10.69,26.29,23.22,49.86,24.62,74.14,1.6,27.78-14.64,44.78-43.88,55.48C521.17,101.37,499.47,74.94,502.56,46c.71-6.71,3.64-14.11,9-18.31C523.83,18,538.22,10,553.89,0Z"/><path class="cls-1" d="M667.82,125.75c-9.43,13.65-16.15,27.16-27.13,38.33-14.34,14.59-53.32,17-78.43,7.17-7-2.76-9.24-6.44-8.24-11.5,4.52-23,24.09-36.26,57-37.58,10.07-.4,20.46.13,30.75.75C650,123.42,658.32,124.69,667.82,125.75Z"/><path class="cls-1" d="M313.68,29.3c27.93,14.87,53.4,28.56,70.1,52.63,10.39,15,14,30.34,8.59,45.39-3.48,9.73-8.92,11.11-20.11,5.64a101.35,101.35,0,0,1-41.34-37.29C317.65,74.92,314.88,53.4,313.68,29.3Z"/><path class="cls-1" d="M343.57,142.9c31.75,6.54,62.94,11.71,82.94,34a38.07,38.07,0,0,1,8,13.73c5.58,18.07-13.21,28-37.29,19.59C362,197.86,342.92,179.15,343.57,142.9Z"/><path class="cls-1" d="M705.86,206.05c-18.27,34.87-56.53,48.07-96.62,36.16-10.82-3.22-14.74-7.08-12.84-14.87,4.81-19.73,21.08-30.6,49.77-31.08C666.34,195.93,686.19,199.79,705.86,206.05Z"/><path class="cls-1" d="M234.38,94.18c25.18,9.13,46.82,19.69,63.91,36.19C311.36,143,316.86,156.64,315.51,171c-.95,10.12-2.71,11.26-16.18,8.21-28.45-6.45-49-20.74-59.82-43.23C232.86,122.17,232.38,108.65,234.38,94.18Z"/><path class="cls-1" d="M546.42,297c-8.57-5.72-17.4-11.27-25.63-17.23-6.69-4.84-6.53-8.64,1.3-12,24.43-10.44,50.44-10.65,78.06,2.14,11.59,5.36,21.9,12.34,32.92,18.47,6.72,3.75,6.57,6.89.13,8.88C606.34,305.54,578.65,309.92,546.42,297Z"/><path class="cls-1" d="M251.59,212.26c31.11,0,57.32.54,82.06,13.8,14.18,7.59,22.19,17.22,25.44,28.89,1.94,6.95-.94,10.32-10.92,10.9-32.3,1.87-57-9.73-77-28.55C263.72,230.33,259.07,222,251.59,212.26Z"/><path class="cls-1" d="M456.47,56.83c6.38,27.26,9.13,52.78-5.38,78.51-11.53-12.57-24-22.94-31.42-35.6-3.76-6.41-3.91-18,4.23-25.35C432.9,66.26,439.83,55.87,456.47,56.83Z"/></g></g></svg>