<svg xmlns="http://www.w3.org/2000/svg" viewBox="0 0 701.06 911.52"><defs><style>.cls-1{fill:#0d2b2c;}.cls-2{fill:#02c071;}</style></defs><title>Elemento-1</title><g id="Capa_2" data-name="Capa 2"><g id="Capa_1-2" data-name="Capa 1"><path class="cls-1" d="M439.49,338c37-26.76,82.77-42.19,132.15-54.44-72.45-6.46-133.17,6.2-186,36-1.74-14.25-3.07-28.13.35-40.92,8.57-32,19.53-63.45,29-95.25,1.7-5.71.71-12.08,1-18.15l-4.55-.75-58.27,98L292.8,225.26c16.27,33,34.81,62.34,44.26,92.12,9.83,31-5.47,58.36-24.32,86.27-29.89-33.14-70.6-54.4-112.29-75.33-21.81-10.95-41.37-24.37-61.85-36.76-3.47-2.09-6.47-4.57-9.69-6.88a23.4,23.4,0,0,0,7.75,14.6C159,320,180.33,341.44,204.8,361c37,29.58,60.78,72.08,51.5,97.05-5.55,14.95,1.8-4.41-21.62,45.91h-.09v.2l-.17.35h.17v11.68q0,12.95,0,25.88h-.06q0,60.71-.22,121.4c-.09,25.63,0,51.31-1.5,76.88-2.16,35.79-26.55,54.94-62.9,51.45a103.33,103.33,0,0,1-57.77-24.41c-16.29,28.11-32.38,55.5-47.85,83.23-1.32,2.35.34,8,2.55,10.31,18.9,20.18,41.35,34.86,68.77,41.8a282.66,282.66,0,0,0,106.49,6.42c44.91-5.84,82.47-24.52,108-63.21,23-34.9,28.23-73.88,28.31-114q.19-92.92,0-185.86h-.09q0-15.45,0-30.9c0-3.51-.26-7-.45-10.6l.08-.05h-1.38c-23.25-82.81-16.42-61.21-4.69-87.23,19.71-43.71,64.08-63.92,129.47-66.85a113.1,113.1,0,0,0,13.59-1.35c3.34-.56,6.32-1.8,9.46-2.74l-1.21-4.4Z"/><path class="cls-2" d="M475.59,0C491.45,38.33,510,72.68,512.12,108.08c2.37,40.48-21.72,65.27-65.1,80.87-20-41.18-52.17-79.71-47.59-121.88,1.06-9.78,5.4-20.56,13.3-26.69C431,26.21,452.34,14.62,475.59,0Z"/><path class="cls-2" d="M644.63,183.31c-14,19.9-24,39.58-40.26,55.87C583.1,260.44,525.27,264,488,249.64c-10.46-4-13.7-9.39-12.23-16.77,6.71-33.57,35.74-52.86,84.6-54.78,14.94-.59,30.36.19,45.63,1.1C618.21,179.91,630.53,181.76,644.63,183.31Z"/><path class="cls-2" d="M119.2,42.71c41.44,21.68,79.22,41.63,104,76.73C238.61,141.27,244,163.66,236,185.6c-5.17,14.17-13.23,16.19-29.84,8.21-26.37-12.66-46.41-31.42-61.34-54.36C125.08,109.21,121,77.84,119.2,42.71Z"/><path class="cls-2" d="M163.54,208.31c47.11,9.54,93.39,17.07,123.06,49.58a55.14,55.14,0,0,1,11.9,20c8.27,26.33-19.6,40.87-55.32,28.55C190.88,288.42,162.57,261.14,163.54,208.31Z"/><path class="cls-2" d="M701.06,300.36c-27.1,50.83-83.87,70.07-143.35,52.7-16.05-4.68-21.87-10.3-19.05-21.67,7.14-28.76,31.28-44.6,73.84-45.29C642.43,285.61,671.88,291.24,701.06,300.36Z"/><path class="cls-2" d="M1.54,137.29C38.9,150.59,71,166,96.36,190c19.39,18.39,27.55,38.3,25.55,59.21-1.42,14.75-4,16.42-24,12C55.7,251.82,25.2,231,9.14,198.2-.72,178.09-1.42,158.38,1.54,137.29Z"/><path class="cls-2" d="M464.51,432.93c-12.72-8.35-25.82-16.43-38-25.12-9.92-7.06-9.68-12.6,1.93-17.47,36.25-15.23,74.84-15.53,115.82,3.1,17.19,7.82,32.5,18,48.83,26.93,10,5.46,9.76,10.05.2,12.95C553.42,445.39,512.33,451.78,464.51,432.93Z"/><path class="cls-2" d="M27.07,309.42c46.16,0,85.05.78,121.75,20.1,21.05,11.08,32.93,25.12,37.75,42.12,2.87,10.14-1.4,15-16.21,15.89-47.91,2.73-84.62-14.19-114.3-41.61C45.06,335.76,38.17,323.64,27.07,309.42Z"/><path class="cls-2" d="M331.05,82.84c9.47,39.73,13.55,76.94-8,114.45C306,179,287.47,163.85,276.46,145.4c-5.59-9.35-5.81-26.25,6.26-37C296.08,96.59,306.36,81.45,331.05,82.84Z"/></g></g></svg>