<svg xmlns="http://www.w3.org/2000/svg" viewBox="0 0 362.17 325.28"><defs><style>.cls-1{fill:#02c071;}.cls-2{fill:#0d2b2c;}.cls-3{fill:#068e57;}</style></defs><title>Elemento-4</title><g id="Capa_2" data-name="Capa 2"><g id="Capa_1-2" data-name="Capa 1"><path class="cls-1" d="M131.49,18.62C170.41,37,207.74,48.36,241.07,71.81c43.5,30.62,67.28,130.3,53.54,199.59-3.86,19.44-12.2,26.72-25.51,26.39-60.52-1.5-103-46.23-121.13-130.78-5.56-25.85-8.88-53-11.94-79.85C133.58,65.68,133.07,43.67,131.49,18.62Z"/><path class="cls-2" d="M309.25,0c18.24,39,39.7,71.57,50.37,110.9,13.94,51.34-31.39,143.24-86.2,187.8-15.38,12.51-26.45,12.78-36.49,4-45.62-39.8-49.72-101.31-9.74-178,12.23-23.44,27-46.42,41.79-69.07C280.81,37.56,294.47,20.29,309.25,0Z"/><path class="cls-3" d="M0,167.57c42-9.33,78.49-23.17,119.2-25,53.14-2.44,133,61.8,164.55,125,8.86,17.73,6.72,28.59-4,36.49C231,339.89,170,330.51,103.9,274.8c-20.23-17-39.45-36.44-58.34-55.81C30.47,203.5,16.59,186.41,0,167.57Z"/></g></g></svg>