<svg xmlns="http://www.w3.org/2000/svg" viewBox="0 0 337.25 337.46"><defs><style>.cls-1{fill:#0d2b2c;}.cls-2{fill:none;stroke:#0d2b2c;stroke-miterlimit:10;stroke-width:9px;}.cls-3{fill:#02c071;}</style></defs><title>Elemento-2</title><g id="Capa_2" data-name="Capa 2"><g id="Capa_1-2" data-name="Capa 1"><path class="cls-1" d="M235.26,46.31,197.42,72.22l24.39,38.32-34.48,23.61L162.94,95.83l-38.06,26.06L103.3,88l38.06-26.07L117,23.61,151.45,0l24.39,38.32,37.84-25.91Z"/><path class="cls-2" d="M331.12,209l-52.59,36,33.89,53.27L264.5,331.12l-33.9-53.26-52.91,36.22L147.7,267l52.9-36.23-33.89-53.26,47.92-32.82,33.9,53.27,52.6-36Z"/><path class="cls-3" d="M236.27,154.45l-67.34,46.09,45,70.76-61.36,42-45-70.77L39.84,288.9,0,226.28l67.74-46.36-45-70.77,61.36-42,45,70.77,67.33-46.09Z"/></g></g></svg>