<svg xmlns="http://www.w3.org/2000/svg" viewBox="0 0 454.1 322.18"><defs><style>.cls-1{fill:#0d2b2c;}.cls-2{fill:#02c071;}</style></defs><title>Elemento-3</title><g id="Capa_2" data-name="Capa 2"><g id="Capa_1-2" data-name="Capa 1"><path class="cls-1" d="M284.67,219c23.95-17.34,53.61-27.33,85.6-35.27C323.34,179.5,284,187.7,249.8,207c-1.12-9.23-2-18.22.23-26.5,5.55-20.73,12.65-41.1,18.76-61.7,1.1-3.7.46-7.82.62-11.75l-3-.49L228.72,170l-39.06-24.07c10.53,21.38,22.54,40.37,28.66,59.66,6.37,20.08-3.54,37.8-15.75,55.88-19.36-21.46-45.73-35.23-72.73-48.79-14.13-7.09-26.8-15.79-40.07-23.81-2.24-1.35-4.19-3-6.27-4.45a15.12,15.12,0,0,0,5,9.45c14.48,13.44,28.29,27.31,44.14,40C156.62,253,172,280.51,166,296.68c-3.41,9.16.66-1.53-11.73,24.86,29.42.11,58.84.39,88.26.64-13.5-48.23-9.12-35.55-1.75-51.9C253.57,242,282.3,228.87,324.66,227a71.66,71.66,0,0,0,8.8-.87,49.17,49.17,0,0,0,6.13-1.77l-.78-2.85Z"/><path class="cls-2" d="M308.06,0c10.26,24.82,22.31,47.08,23.65,70,1.54,26.22-14.06,42.28-42.16,52.38-12.94-26.68-33.8-51.63-30.83-78.95.69-6.33,3.5-13.32,8.62-17.29C279.16,17,293,9.47,308.06,0Z"/><path class="cls-2" d="M417.55,118.73c-9.07,12.89-15.53,25.64-26.08,36.19C377.69,168.7,340.23,171,316.1,161.7c-6.78-2.61-8.88-6.08-7.92-10.87,4.34-21.74,23.15-34.23,54.79-35.48,9.68-.38,19.67.13,29.56.71C400.43,116.53,408.41,117.73,417.55,118.73Z"/><path class="cls-2" d="M77.21,27.66c26.84,14,51.31,27,67.36,49.7,10,14.14,13.44,28.65,8.26,42.86-3.35,9.18-8.57,10.48-19.33,5.32A96.8,96.8,0,0,1,93.77,90.33C81,70.74,78.36,50.42,77.21,27.66Z"/><path class="cls-2" d="M105.93,134.93c30.51,6.18,60.49,11,79.71,32.11a35.89,35.89,0,0,1,7.71,13c5.35,17.06-12.7,26.47-35.84,18.5C123.64,186.82,105.3,169.15,105.93,134.93Z"/><path class="cls-2" d="M454.1,194.55c-17.56,32.93-54.33,45.39-92.85,34.14-10.4-3-14.17-6.68-12.34-14,4.62-18.63,20.26-28.89,47.82-29.34C416.12,185,435.2,188.64,454.1,194.55Z"/><path class="cls-2" d="M1,88.93c24.2,8.61,45,18.58,61.42,34.16C75,135,80.26,147.9,79,161.44c-.91,9.56-2.6,10.64-15.54,7.76-27.34-6.09-47.09-19.59-57.5-40.82C-.46,115.35-.92,102.59,1,88.93Z"/><path class="cls-2" d="M300.88,280.42c-8.24-5.41-16.73-10.64-24.64-16.27-6.43-4.57-6.27-8.16,1.25-11.32,23.48-9.86,48.48-10.05,75,2,11.14,5.06,21.05,11.65,31.63,17.44,6.47,3.53,6.32,6.5.13,8.38C358.46,288.49,331.85,292.63,300.88,280.42Z"/><path class="cls-2" d="M17.54,200.42c29.9,0,55.08.51,78.86,13,13.63,7.18,21.33,16.27,24.45,27.28,1.86,6.57-.91,9.74-10.5,10.29-31,1.77-54.81-9.19-74-26.95C29.19,217.48,24.73,209.63,17.54,200.42Z"/><path class="cls-2" d="M214.43,53.65c6.13,25.74,8.78,49.84-5.17,74.14-11.08-11.87-23.06-21.66-30.19-33.61a19.64,19.64,0,0,1,4.06-23.94C191.78,62.57,198.44,52.76,214.43,53.65Z"/></g></g></svg>