<svg xmlns="http://www.w3.org/2000/svg" viewBox="0 0 519.37 292.95"><defs><style>.cls-1{fill:#02c071;}.cls-2{fill:#f1faf8;}</style></defs><title>Isologo-oscuro</title><g id="Capa_2" data-name="Capa 2"><g id="Capa_1-2" data-name="Capa 1"><path class="cls-1" d="M501,183.69c-6.23-2.32-11.8-4.74-17.59-6.49a89.33,89.33,0,0,0-36.08-3.71,31.8,31.8,0,0,0-6.31,1.41c-3.36,1.1-5.56,3.32-5.6,7s2.14,5.86,5.33,6.7c6.92,1.82,14,3.17,20.92,4.83,10,2.37,20.25,4,29.82,7.44,22,8,30.41,23.2,27.16,46.16-2.83,20-15.18,31.65-33.73,38-15.29,5.23-31.11,5.23-47,4.16a158.34,158.34,0,0,1-45.87-9.68c-2.41-.92-3.41-1.87-2.53-4.66,3.34-10.52,6.42-21.13,9.62-31.71a19.46,19.46,0,0,1,1-2.21c3.18,1.38,6.21,2.72,9.27,4,15,6.35,30.65,9.58,47,8.58a29.74,29.74,0,0,0,9-2.1,7.89,7.89,0,0,0,5.22-7.47c0-3.54-2.77-5.28-5.64-6-9.8-2.51-19.76-4.43-29.54-7-9-2.37-18.22-4.42-26.57-8.23-12.87-5.88-19-17.07-20-30.72-2.1-28.2,14.59-49.3,43.09-54.24,25.87-4.48,51-1.34,75.13,8.77,5,2.08,4.87,2.15,3.18,7.42-2.6,8.12-5.09,16.26-7.63,24.4C502.23,180,501.71,181.58,501,183.69Z"/><path class="cls-1" d="M110.31,186.83l-4.57-2c-15.65-6.77-31.89-10-49-7.85-1.85.23-4,.53-5.34,1.63a13.71,13.71,0,0,0-4.44,6c-.89,3,1.06,5.57,3.9,6.68a78.56,78.56,0,0,0,11.21,3.34c11.33,2.57,22.82,4.53,34,7.56,11.57,3.14,22.16,8.46,27.91,19.6,5.66,11,5.25,22.65,2.38,34.28C121.45,276,106.87,286,87.87,290c-28.81,6-57,2.62-84.38-8-2-.78-3.18-1.61-2.39-4.1,3.29-10.4,6.42-20.86,9.63-31.29a11.41,11.41,0,0,1,1-1.92c5.6,2.22,11,4.6,16.55,6.53a101.38,101.38,0,0,0,35.47,5.62,45.57,45.57,0,0,0,10.77-1.58c3.84-1,6.26-3.77,6.2-7.9-.06-3.86-2.89-5.64-6.19-6.43-11.69-2.81-23.53-5-35.08-8.27-7.72-2.17-15.67-4.7-22.43-8.79C2.4,215-1.14,200.69.29,184.93c2.17-23.7,19.76-41.22,45.14-44.58,24.45-3.25,48.31-.65,71.17,9,5.33,2.25,5.34,2.27,3.62,7.73q-4.2,13.32-8.45,26.64A27.26,27.26,0,0,1,110.31,186.83Z"/><path class="cls-1" d="M375.33,227.71h-47v42.47H295.86v-42.8H248.45V195.21h47.6c0-12.51,0-24.42,0-36.32,0-8.73.07-8.74,8.71-8.76h23.81v45.06h46.75Z"/><path class="cls-2" d="M252.52,108.64c11.88-8.6,26.6-13.56,42.47-17.5-23.29-2.08-42.8,2-59.77,11.56-.56-4.58-1-9,.11-13.16,2.76-10.28,6.27-20.38,9.31-30.61.54-1.83.23-3.88.31-5.83l-1.47-.24L224.76,84.34,205.37,72.4c5.23,10.61,11.19,20,14.23,29.6,3.16,10-1.76,18.76-7.82,27.73-9.6-10.65-22.69-17.49-36.09-24.21-7-3.52-13.29-7.83-19.88-11.81-1.11-.68-2.08-1.47-3.11-2.22a7.57,7.57,0,0,0,2.49,4.7c7.19,6.67,14,13.54,21.9,19.83,11.89,9.5,19.53,23.17,16.55,31.19-1.78,4.8.58-1.42-6.95,14.76h0V162l0,.11h0v12.07h0q0,19.51-.07,39c0,8.24,0,16.49-.49,24.71-.69,11.5-8.53,17.66-20.21,16.53a33.25,33.25,0,0,1-18.57-7.84c-5.23,9-10.4,17.84-15.38,26.75-.42.76.11,2.56.82,3.31a45,45,0,0,0,22.11,13.43,90.58,90.58,0,0,0,34.22,2.07c14.44-1.88,26.51-7.88,34.71-20.32,7.39-11.21,9.07-23.74,9.09-36.64q.06-29.86,0-59.73h0c0-3.31,0-6.62,0-9.93,0-1.13-.08-2.26-.15-3.41l0,0h-.44c-7.47-26.61-5.28-19.67-1.51-28,6.33-14.05,20.59-20.55,41.61-21.49a36.54,36.54,0,0,0,4.37-.43,25.33,25.33,0,0,0,3-.88l-.39-1.42Z"/><path class="cls-1" d="M264.12,0c5.1,12.32,11.07,23.36,11.74,34.74.76,13-7,21-20.92,26-6.42-13.24-16.77-25.62-15.3-39.17.34-3.15,1.74-6.61,4.28-8.58C249.78,8.42,256.65,4.7,264.12,0Z"/><path class="cls-1" d="M318.45,58.91c-4.5,6.4-7.7,12.73-12.94,18-6.84,6.83-25.42,8-37.4,3.36-3.36-1.29-4.4-3-3.93-5.39,2.16-10.79,11.49-17,27.19-17.6,4.8-.19,9.76.06,14.67.35C310,57.82,313.91,58.42,318.45,58.91Z"/><path class="cls-1" d="M149.58,13.73C162.9,20.69,175,27.11,183,38.39c5,7,6.67,14.21,4.1,21.26-1.66,4.56-4.25,5.2-9.59,2.64A48.06,48.06,0,0,1,157.8,44.82C151.47,35.1,150.15,25,149.58,13.73Z"/><path class="cls-1" d="M163.83,67c15.14,3.06,30,5.48,39.55,15.93a17.83,17.83,0,0,1,3.83,6.43c2.65,8.47-6.31,13.14-17.79,9.18C172.62,92.7,163.52,83.93,163.83,67Z"/><path class="cls-1" d="M336.58,96.53c-8.71,16.34-26.95,22.52-46.07,16.94-5.16-1.5-7-3.31-6.12-7,2.29-9.25,10.05-14.34,23.73-14.56A90.2,90.2,0,0,1,336.58,96.53Z"/><path class="cls-1" d="M111.76,44.12c12,4.28,22.33,9.23,30.48,17,6.23,5.91,8.85,12.31,8.21,19-.46,4.74-1.29,5.27-7.71,3.84-13.57-3-23.37-9.71-28.53-20.25C111,57.24,110.81,50.9,111.76,44.12Z"/><path class="cls-1" d="M260.56,139.14c-4.09-2.68-8.3-5.28-12.22-8.07-3.19-2.27-3.12-4,.62-5.62,11.65-4.89,24-5,37.22,1,5.53,2.51,10.44,5.78,15.69,8.65,3.21,1.76,3.14,3.23.07,4.16C289.13,143.15,275.93,145.2,260.56,139.14Z"/><path class="cls-1" d="M120,99.44c14.84,0,27.33.26,39.13,6.47,6.76,3.56,10.58,8.07,12.13,13.53.92,3.26-.45,4.84-5.21,5.11-15.4.88-27.19-4.56-36.73-13.37C125.75,107.91,123.54,104,120,99.44Z"/><path class="cls-1" d="M217.67,26.62c3,12.77,4.35,24.73-2.57,36.79-5.5-5.89-11.44-10.75-15-16.68a9.75,9.75,0,0,1,2-11.88C206.43,31,209.73,26.18,217.67,26.62Z"/></g></g></svg>