<svg xmlns="http://www.w3.org/2000/svg" viewBox="0 0 510.52 287.96"><defs><style>.cls-1{fill:#068e57;}.cls-2{fill:#0d2b2c;}</style></defs><title>Isologo-claro</title><g id="Capa_2" data-name="Capa 2"><g id="Capa_1-2" data-name="Capa 1"><path class="cls-1" d="M492.5,180.56c-6.12-2.28-11.6-4.65-17.28-6.38a87.78,87.78,0,0,0-35.47-3.64,30.79,30.79,0,0,0-6.21,1.38c-3.3,1.08-5.46,3.26-5.5,6.89s2.1,5.76,5.24,6.59c6.8,1.78,13.72,3.12,20.56,4.74,9.81,2.33,19.91,3.91,29.32,7.32,21.63,7.84,29.89,22.8,26.69,45.37-2.78,19.65-14.92,31.11-33.15,37.35-15,5.14-30.58,5.15-46.19,4.09a155.42,155.42,0,0,1-45.09-9.51c-2.37-.9-3.36-1.84-2.49-4.58,3.29-10.35,6.32-20.78,9.46-31.17a20.51,20.51,0,0,1,1-2.18c3.12,1.36,6.11,2.68,9.11,3.95,14.76,6.25,30.14,9.42,46.24,8.44a28.71,28.71,0,0,0,8.84-2.07,7.75,7.75,0,0,0,5.14-7.34c0-3.48-2.73-5.19-5.54-5.91-9.64-2.47-19.43-4.36-29.05-6.9-8.81-2.34-17.9-4.35-26.11-8.1-12.65-5.77-18.69-16.77-19.68-30.19-2.07-27.72,14.33-48.46,42.35-53.31,25.43-4.41,50.09-1.33,73.85,8.62,4.88,2,4.78,2.11,3.12,7.29-2.55,8-5,16-7.5,24C493.67,176.89,493.16,178.49,492.5,180.56Z"/><path class="cls-1" d="M108.43,183.65l-4.5-2C88.56,175,72.59,171.82,55.77,174c-1.82.23-4,.52-5.26,1.6a13.6,13.6,0,0,0-4.36,5.89c-.88,2.93,1,5.48,3.83,6.57a76,76,0,0,0,11,3.28c11.13,2.53,22.42,4.46,33.42,7.44,11.38,3.08,21.78,8.32,27.44,19.26,5.56,10.78,5.16,22.26,2.34,33.7-4.83,19.56-19.16,29.48-37.83,33.37-28.33,5.9-56.07,2.58-82.95-7.91-2-.76-3.12-1.58-2.35-4,3.24-10.23,6.31-20.51,9.46-30.76a12.81,12.81,0,0,1,1-1.89c5.5,2.19,10.81,4.52,16.27,6.42a99.58,99.58,0,0,0,34.87,5.52,44.56,44.56,0,0,0,10.58-1.55c3.77-1,6.15-3.71,6.09-7.77-.06-3.79-2.84-5.54-6.08-6.32-11.49-2.76-23.13-4.95-34.48-8.13-7.59-2.13-15.4-4.61-22.05-8.63C2.36,211.34-1.12,197.27.29,181.78,2.41,158.48,19.7,141.26,44.65,138c24-3.19,47.5-.64,70,8.84,5.24,2.22,5.25,2.23,3.56,7.6q-4.12,13.1-8.3,26.19A28.26,28.26,0,0,1,108.43,183.65Z"/><path class="cls-1" d="M368.93,223.83H322.7v41.74H290.82V223.51H244.21V191.88H291c0-12.3,0-24,0-35.7,0-8.58.07-8.59,8.56-8.61H323v44.3h45.95Z"/><path class="cls-2" d="M248.22,106.79c11.67-8.46,26.14-13.33,41.74-17.2-22.89-2-42.07,2-58.75,11.36-.55-4.51-1-8.89.11-12.93,2.71-10.11,6.17-20,9.15-30.09.53-1.81.22-3.82.3-5.73L239.34,52,220.93,82.9c-6.66-4.09-12.42-7.64-19.06-11.74,5.14,10.43,11,19.7,14,29.1,3.1,9.8-1.73,18.44-7.69,27.26-9.44-10.47-22.3-17.19-35.47-23.8-6.89-3.46-13.07-7.7-19.54-11.61-1.1-.66-2-1.45-3.06-2.17a7.4,7.4,0,0,0,2.45,4.61c7.06,6.55,13.79,13.32,21.52,19.49,11.69,9.35,19.2,22.77,16.27,30.66-1.75,4.72.57-1.39-6.83,14.51h0v.06l0,.11h0v11.87h0q0,19.17-.07,38.35c0,8.09,0,16.21-.48,24.28-.68,11.31-8.38,17.36-19.86,16.26a32.64,32.64,0,0,1-18.26-7.71c-5.14,8.88-10.22,17.53-15.11,26.29-.42.74.11,2.52.8,3.26a44.29,44.29,0,0,0,21.73,13.2,89.17,89.17,0,0,0,33.64,2c14.19-1.84,26.05-7.74,34.11-20,7.27-11,8.92-23.34,8.95-36q.06-29.35,0-58.71h0c0-3.26,0-6.51,0-9.76,0-1.11-.08-2.23-.14-3.36h-.41c-7.34-26.16-5.19-19.34-1.48-27.56,6.22-13.81,20.24-20.19,40.9-21.12a35,35,0,0,0,4.29-.42,24,24,0,0,0,3-.87l-.38-1.39Z"/><path class="cls-1" d="M259.62,0c5,12.11,10.88,23,11.54,34.14.75,12.79-6.86,20.62-20.57,25.55-6.31-13-16.48-25.18-15-38.5.34-3.09,1.71-6.5,4.2-8.43C245.53,8.28,252.28,4.62,259.62,0Z"/><path class="cls-1" d="M313,57.91c-4.42,6.29-7.57,12.51-12.72,17.65-6.72,6.72-25,7.85-36.76,3.31-3.3-1.28-4.33-3-3.86-5.3C261.8,63,271,56.87,286.41,56.26c4.72-.18,9.59.06,14.41.35C304.68,56.83,308.57,57.42,313,57.91Z"/><path class="cls-1" d="M147,13.49c13.09,6.85,25,13.15,32.86,24.24,4.87,6.9,6.55,14,4,20.9-1.63,4.48-4.18,5.12-9.42,2.6a47.26,47.26,0,0,1-19.38-17.17C148.89,34.5,147.59,24.59,147,13.49Z"/><path class="cls-1" d="M161,65.81c14.88,3,29.5,5.39,38.87,15.66a17.61,17.61,0,0,1,3.77,6.32c2.61,8.32-6.2,12.91-17.48,9C169.67,91.12,160.73,82.5,161,65.81Z"/><path class="cls-1" d="M330.85,94.89c-8.56,16.06-26.5,22.14-45.29,16.65-5.07-1.48-6.91-3.26-6-6.85,2.25-9.08,9.88-14.09,23.32-14.31A88.94,88.94,0,0,1,330.85,94.89Z"/><path class="cls-1" d="M109.86,43.37c11.8,4.2,22,9.07,30,16.67,6.12,5.81,8.7,12.1,8.07,18.7-.45,4.66-1.27,5.19-7.59,3.78-13.33-3-23-9.55-28-19.9C109.15,56.26,108.92,50,109.86,43.37Z"/><path class="cls-1" d="M256.12,136.77c-4-2.64-8.16-5.19-12-7.94-3.13-2.23-3-4,.61-5.52,11.46-4.81,23.65-4.9,36.59,1,5.44,2.47,10.27,5.68,15.43,8.5,3.16,1.73,3.08,3.18.06,4.09C284.21,140.71,271.23,142.72,256.12,136.77Z"/><path class="cls-1" d="M117.93,97.75c14.58,0,26.86.25,38.46,6.35,6.65,3.5,10.4,7.93,11.92,13.31.91,3.2-.44,4.75-5.12,5-15.13.86-26.73-4.49-36.11-13.15C123.61,106.07,121.43,102.24,117.93,97.75Z"/><path class="cls-1" d="M214,26.17c3,12.55,4.28,24.31-2.53,36.16-5.4-5.79-11.24-10.57-14.72-16.4a9.58,9.58,0,0,1,2-11.67C202.91,30.51,206.16,25.73,214,26.17Z"/></g></g></svg>