<svg xmlns="http://www.w3.org/2000/svg" viewBox="0 0 516.19 131.94"><defs><style>.cls-1{fill:#0d2b2c;}</style></defs><title>Logotipo-negro</title><g id="Capa_2" data-name="Capa 2"><g id="Capa_1-2" data-name="Capa 1"><path class="cls-1" d="M193.64,72.26c-2.41-.92-4.56-1.87-6.8-2.56a33.92,33.92,0,0,0-13.94-1.45,11.83,11.83,0,0,0-2.44.55,2.81,2.81,0,0,0-2.17,2.76,2.56,2.56,0,0,0,2.07,2.63c2.67.72,5.39,1.25,8.08,1.9,3.85.93,7.82,1.57,11.52,2.93,8.51,3.14,11.76,9.13,10.5,18.15-1.1,7.87-5.87,12.46-13,15-5.9,2.06-12,2.06-18.16,1.64A60.25,60.25,0,0,1,151.54,110c-.93-.36-1.32-.73-1-1.83,1.29-4.14,2.48-8.31,3.72-12.47a7.39,7.39,0,0,1,.39-.87c1.23.54,2.4,1.07,3.58,1.58a39.38,39.38,0,0,0,18.19,3.37,11.27,11.27,0,0,0,3.47-.82,3.1,3.1,0,0,0,2-2.94,2.49,2.49,0,0,0-2.18-2.37c-3.79-1-7.64-1.74-11.42-2.76a62.78,62.78,0,0,1-10.26-3.24c-5-2.31-7.35-6.71-7.74-12.08C149.52,64.43,156,56.13,167,54.18a50.39,50.39,0,0,1,29,3.45c1.93.82,1.89.85,1.23,2.92-1,3.19-2,6.4-3,9.6C194.1,70.79,193.9,71.43,193.64,72.26Z"/><path class="cls-1" d="M42.63,73.49l-1.77-.79a35.15,35.15,0,0,0-18.93-3.09,4.08,4.08,0,0,0-2.07.64,5.35,5.35,0,0,0-1.71,2.36,2.19,2.19,0,0,0,1.5,2.63A29.72,29.72,0,0,0,24,76.55c4.37,1,8.81,1.78,13.14,3s8.56,3.33,10.78,7.71,2,8.9.93,13.48c-1.9,7.83-7.54,11.8-14.88,13.36-11.13,2.36-22,1-32.61-3.17-.77-.3-1.23-.63-.92-1.61C1.7,105.21,2.9,101.09,4.15,97a4.86,4.86,0,0,1,.38-.76c2.16.88,4.25,1.82,6.4,2.57A38.26,38.26,0,0,0,24.63,101a16.82,16.82,0,0,0,4.17-.62,3,3,0,0,0,2.39-3.11c0-1.51-1.12-2.21-2.39-2.52-4.52-1.11-9.09-2-13.56-3.26a34.74,34.74,0,0,1-8.67-3.45c-5.64-3.48-7-9.11-6.46-15.3C1,63.42,7.75,56.53,17.56,55.21a51,51,0,0,1,27.5,3.54c2.06.88,2.07.89,1.4,3Q44.84,67,43.2,72.27A11.32,11.32,0,0,1,42.63,73.49Z"/><path class="cls-1" d="M145.05,89.57H126.88v16.71H114.34V89.44H96V76.79h18.4c0-4.92,0-9.61,0-14.29,0-3.43,0-3.44,3.36-3.44,3,0,6,0,9.21,0V76.78h18.06Z"/><path class="cls-1" d="M97.59,42.73c4.59-3.38,10.28-5.33,16.42-6.88-9-.82-16.55.78-23.1,4.55a13.85,13.85,0,0,1,0-5.18c1.06-4,2.42-8,3.6-12a10.2,10.2,0,0,0,.12-2.29l-.57-.1L86.86,33.18l-7.49-4.7c2,4.17,4.33,7.88,5.5,11.64,1.22,3.92-.68,7.38-3,10.91-3.71-4.19-8.77-6.88-13.95-9.52-2.71-1.39-5.14-3.08-7.68-4.65-.43-.26-.81-.58-1.21-.87a3,3,0,0,0,1,1.85c2.77,2.62,5.42,5.33,8.46,7.8,4.6,3.74,7.55,9.11,6.4,12.27-.69,1.89.22-.56-2.69,5.8h0v0l0,0h0v4.75h0q0,7.66,0,15.35c0,3.24,0,6.48-.18,9.72-.27,4.52-3.3,6.94-7.82,6.5A12.73,12.73,0,0,1,56.93,97c-2,3.55-4,7-5.94,10.52a1.47,1.47,0,0,0,.31,1.3,17.33,17.33,0,0,0,8.54,5.28,34.55,34.55,0,0,0,13.23.82c5.58-.74,10.24-3.1,13.41-8C89.34,102.53,90,97.6,90,92.53Q90,80.79,90,69h0v-3.9c0-.45,0-.89-.06-1.34h-.16c-2.89-10.47-2-7.74-.58-11,2.45-5.52,8-8.08,16.08-8.45a15.6,15.6,0,0,0,1.69-.17,9.28,9.28,0,0,0,1.17-.35l-.15-.55Z"/><path class="cls-1" d="M102.08,0c2,4.85,4.27,9.19,4.53,13.66.3,5.12-2.69,8.26-8.08,10.23-2.48-5.21-6.48-10.08-5.91-15.41A5.06,5.06,0,0,1,94.27,5.1C96.53,3.31,99.19,1.85,102.08,0Z"/><path class="cls-1" d="M123.07,23.17c-1.74,2.52-3,5-5,7.07-2.64,2.69-9.82,3.14-14.45,1.32-1.3-.51-1.7-1.19-1.52-2.12.83-4.24,4.44-6.68,10.51-6.93,1.85-.07,3.77,0,5.66.14C119.79,22.74,121.32,23,123.07,23.17Z"/><path class="cls-1" d="M57.81,5.4c5.14,2.74,9.84,5.26,12.92,9.7,1.91,2.76,2.57,5.59,1.58,8.36-.64,1.8-1.64,2.05-3.71,1A18.73,18.73,0,0,1,61,17.63C58.54,13.81,58,9.84,57.81,5.4Z"/><path class="cls-1" d="M63.32,26.33c5.85,1.21,11.6,2.16,15.28,6.27a7.09,7.09,0,0,1,1.48,2.53c1,3.33-2.44,5.17-6.87,3.61C66.71,36.46,63.2,33,63.32,26.33Z"/><path class="cls-1" d="M130.08,38c-3.37,6.43-10.42,8.86-17.8,6.67-2-.6-2.72-1.31-2.37-2.74.89-3.64,3.88-5.64,9.17-5.73A34.44,34.44,0,0,1,130.08,38Z"/><path class="cls-1" d="M43.19,17.36C47.83,19,51.82,21,55,24c2.41,2.32,3.42,4.84,3.17,7.48-.17,1.87-.49,2.08-3,1.51-5.24-1.18-9-3.82-11-8A12.9,12.9,0,0,1,43.19,17.36Z"/><path class="cls-1" d="M100.7,54.73c-1.58-1-3.21-2.08-4.73-3.17-1.23-.9-1.2-1.6.24-2.21a17,17,0,0,1,14.39.39c2.14,1,4,2.28,6.07,3.4,1.24.7,1.21,1.28,0,1.64C111.74,56.31,106.64,57.12,100.7,54.73Z"/><path class="cls-1" d="M46.37,39.12c5.73,0,10.56.1,15.12,2.54A8.69,8.69,0,0,1,66.18,47c.35,1.29-.18,1.91-2,2A18.26,18.26,0,0,1,50,43.73,35.59,35.59,0,0,1,46.37,39.12Z"/><path class="cls-1" d="M84.12,10.47c1.18,5,1.69,9.73-1,14.47-2.12-2.31-4.42-4.23-5.79-6.56a3.89,3.89,0,0,1,.78-4.67C79.78,12.21,81.06,10.3,84.12,10.47Z"/><path class="cls-1" d="M236.41,64.61a20.8,20.8,0,0,1-6.66-2.87l3.33-7.49a21.63,21.63,0,0,0,5.59,2.57,21.29,21.29,0,0,0,6.26,1q5.83,0,5.84-2.92a2.4,2.4,0,0,0-1.66-2.28A30.46,30.46,0,0,0,243.75,51,50.45,50.45,0,0,1,237,49.15a11.44,11.44,0,0,1-4.67-3.2,8.67,8.67,0,0,1-1.95-6,10.32,10.32,0,0,1,1.8-5.93,12,12,0,0,1,5.36-4.18,22.14,22.14,0,0,1,8.74-1.53,30.79,30.79,0,0,1,7,.79,21.67,21.67,0,0,1,6.06,2.33L256.16,39a21,21,0,0,0-10-2.77,8.31,8.31,0,0,0-4.41.9,2.71,2.71,0,0,0-1.39,2.33,2.32,2.32,0,0,0,1.65,2.16,29.92,29.92,0,0,0,5.28,1.49A48.79,48.79,0,0,1,254.13,45a11.6,11.6,0,0,1,4.67,3.18,8.5,8.5,0,0,1,2,5.92A10.18,10.18,0,0,1,259,60a12.31,12.31,0,0,1-5.39,4.18,21.81,21.81,0,0,1-8.71,1.56A33.17,33.17,0,0,1,236.41,64.61Z"/><path class="cls-1" d="M286.26,39.87q3.64,3.15,3.64,9.67V65h-9.08V61.38q-2.1,4-8.2,4.05A12.7,12.7,0,0,1,267,64.3a8.29,8.29,0,0,1-3.57-3,8.09,8.09,0,0,1-1.2-4.38,7.13,7.13,0,0,1,3-6.13q3-2.18,9.34-2.18h5.54c-.18-2.94-2.14-4.41-5.9-4.41a13.74,13.74,0,0,0-4.05.64,10.91,10.91,0,0,0-3.49,1.77L263.44,40a18.26,18.26,0,0,1,5.61-2.39,26.92,26.92,0,0,1,6.64-.84Q282.62,36.72,286.26,39.87Zm-7.95,18.59a4.63,4.63,0,0,0,1.85-2.41V53.64H276q-4.26,0-4.26,2.82a2.48,2.48,0,0,0,1,2,4.22,4.22,0,0,0,2.67.77A5.37,5.37,0,0,0,278.31,58.46Z"/><path class="cls-1" d="M321.36,39.79q3.15,3.08,3.15,9.28V65h-9.74V50.66q0-5.69-4.56-5.69a5.23,5.23,0,0,0-4,1.64,7.06,7.06,0,0,0-1.51,4.93V65h-9.74V37.18h9.28v3a11,11,0,0,1,3.89-2.59,13.22,13.22,0,0,1,4.93-.89A11.42,11.42,0,0,1,321.36,39.79Z"/><path class="cls-1" d="M344.41,64.33a13.22,13.22,0,0,1-5.28-3.92l5.54-6.57q2.86,3.75,6.2,3.75a4.2,4.2,0,0,0,3.36-1.34,5.77,5.77,0,0,0,1.15-3.89V36.92H343V29.07h22.47V51.74q0,7-3.52,10.46t-10.33,3.49A18.27,18.27,0,0,1,344.41,64.33Z"/><path class="cls-1" d="M400,37.18V65h-9.28V62a10,10,0,0,1-3.7,2.56,12,12,0,0,1-4.56.87,11.66,11.66,0,0,1-8.59-3.18q-3.21-3.18-3.21-9.54V37.18h9.75v14a7.14,7.14,0,0,0,1.18,4.56A4.17,4.17,0,0,0,385,57.13a4.84,4.84,0,0,0,3.77-1.62,7.18,7.18,0,0,0,1.46-4.95V37.18Z"/><path class="cls-1" d="M427.48,39.87q3.64,3.15,3.65,9.67V65h-9.08V61.38q-2.1,4-8.21,4.05a12.76,12.76,0,0,1-5.59-1.13,8.2,8.2,0,0,1-3.56-3,8.09,8.09,0,0,1-1.2-4.38,7.11,7.11,0,0,1,3-6.13q3-2.18,9.33-2.18h5.54q-.25-4.41-5.89-4.41a13.8,13.8,0,0,0-4.06.64A10.85,10.85,0,0,0,408,46.56L404.66,40a18.21,18.21,0,0,1,5.62-2.39,26.92,26.92,0,0,1,6.64-.84Q423.85,36.72,427.48,39.87Zm-7.94,18.59a4.56,4.56,0,0,0,1.84-2.41V53.64h-4.2q-4.26,0-4.26,2.82a2.48,2.48,0,0,0,1,2,4.17,4.17,0,0,0,2.66.77A5.4,5.4,0,0,0,419.54,58.46Z"/><path class="cls-1" d="M462.59,39.79q3.15,3.08,3.15,9.28V65H456V50.66Q456,45,451.43,45a5.22,5.22,0,0,0-4,1.64,7.06,7.06,0,0,0-1.52,4.93V65h-9.74V37.18h9.28v3a11.15,11.15,0,0,1,3.9-2.59,13.16,13.16,0,0,1,4.92-.89A11.44,11.44,0,0,1,462.59,39.79Z"/><path class="cls-1" d="M236.41,118.08a20.8,20.8,0,0,1-6.66-2.88l3.33-7.48a21.62,21.62,0,0,0,5.59,2.56,21.29,21.29,0,0,0,6.26,1q5.83,0,5.84-2.92a2.42,2.42,0,0,0-1.66-2.28,29.78,29.78,0,0,0-5.36-1.56,51.85,51.85,0,0,1-6.77-1.88,11.35,11.35,0,0,1-4.67-3.2,8.65,8.65,0,0,1-1.95-6,10.26,10.26,0,0,1,1.8-5.92,11.92,11.92,0,0,1,5.36-4.18,22,22,0,0,1,8.74-1.54,30.79,30.79,0,0,1,7,.79A21.38,21.38,0,0,1,259.29,85l-3.13,7.54a20.88,20.88,0,0,0-10-2.77,8.42,8.42,0,0,0-4.41.89A2.71,2.71,0,0,0,240.41,93a2.31,2.31,0,0,0,1.65,2.15,29.07,29.07,0,0,0,5.28,1.49,48.79,48.79,0,0,1,6.79,1.87,11.8,11.8,0,0,1,4.67,3.18,8.52,8.52,0,0,1,2,5.92,10.13,10.13,0,0,1-1.79,5.85,12.24,12.24,0,0,1-5.39,4.18,21.81,21.81,0,0,1-8.71,1.56A33.61,33.61,0,0,1,236.41,118.08Z"/><path class="cls-1" d="M270.87,117.05a14.24,14.24,0,0,1-5.61-20,13.72,13.72,0,0,1,5.59-5.1,17.54,17.54,0,0,1,8.08-1.82A17.74,17.74,0,0,1,287,92a13.69,13.69,0,0,1,5.59,5.08,13.9,13.9,0,0,1,2,7.41,14,14,0,0,1-2,7.43,13.8,13.8,0,0,1-5.59,5.13,18.57,18.57,0,0,1-16.16,0Zm12.26-7.67a6.93,6.93,0,0,0,1.64-4.89,6.75,6.75,0,0,0-1.64-4.82,5.93,5.93,0,0,0-8.41,0,6.75,6.75,0,0,0-1.64,4.82,6.93,6.93,0,0,0,1.64,4.89,5.88,5.88,0,0,0,8.41,0Z"/><path class="cls-1" d="M302.36,118.1a18,18,0,0,1-5.44-2.08l2.93-6.66a16.62,16.62,0,0,0,4.51,1.87,20.22,20.22,0,0,0,5.18.69,8.22,8.22,0,0,0,3.36-.49,1.51,1.51,0,0,0,1-1.41c0-.61-.4-1-1.21-1.3a24.17,24.17,0,0,0-3.82-.75,37.75,37.75,0,0,1-5.66-1.07,8.78,8.78,0,0,1-4-2.47,7,7,0,0,1-1.69-5,7.57,7.57,0,0,1,1.59-4.74,10.53,10.53,0,0,1,4.64-3.29,20,20,0,0,1,7.31-1.2,29.65,29.65,0,0,1,6,.61,17.26,17.26,0,0,1,5,1.75l-2.92,6.61a16.28,16.28,0,0,0-8-2.05,8,8,0,0,0-3.39.54,1.61,1.61,0,0,0-1.07,1.41c0,.65.39,1.1,1.18,1.36a26,26,0,0,0,3.89.79,45.49,45.49,0,0,1,5.7,1.18,8.76,8.76,0,0,1,3.92,2.44,6.94,6.94,0,0,1,1.67,5,7.57,7.57,0,0,1-1.59,4.69,10.44,10.44,0,0,1-4.7,3.26,21.16,21.16,0,0,1-7.46,1.18A30,30,0,0,1,302.36,118.1Z"/><path class="cls-1" d="M346.36,117.31a10,10,0,0,1-3,1.18,16.89,16.89,0,0,1-3.77.41q-5.43,0-8.36-2.67t-2.92-8V99h-4.05V91.67h4.05V84.43h9.74v7.24h6.36V99h-6.36v9.23a3.26,3.26,0,0,0,.8,2.33,2.76,2.76,0,0,0,2.12.85,5.2,5.2,0,0,0,3-.87Z"/><path class="cls-1" d="M377.54,107H357.33a5.69,5.69,0,0,0,2.39,3.31,8,8,0,0,0,4.43,1.15,9.79,9.79,0,0,0,3.47-.56,10.43,10.43,0,0,0,2.94-1.85l5.13,5.33q-4.05,4.52-11.84,4.52a18.94,18.94,0,0,1-8.57-1.85,13.58,13.58,0,0,1-7.74-12.56A13.71,13.71,0,0,1,355,92a17.51,17.51,0,0,1,15.38-.12,13,13,0,0,1,5.36,5,14.65,14.65,0,0,1,2,7.72C377.69,104.66,377.64,105.46,377.54,107ZM359.1,98.38a5.78,5.78,0,0,0-1.92,3.49h11.38a5.78,5.78,0,0,0-1.92-3.49,6.19,6.19,0,0,0-7.54,0Z"/><path class="cls-1" d="M408.64,93.26q3.15,3.08,3.15,9.28v15.89h-9.74v-14.3q0-5.7-4.56-5.7a5.2,5.2,0,0,0-4,1.65A7,7,0,0,0,392,105v13.43h-9.74V90.64h9.28v3a10.88,10.88,0,0,1,3.89-2.59,13.22,13.22,0,0,1,4.93-.9A11.38,11.38,0,0,1,408.64,93.26Z"/><path class="cls-1" d="M418.46,86.08a5,5,0,0,1,0-7.39,6.17,6.17,0,0,1,4.31-1.49,6.39,6.39,0,0,1,4.31,1.41,4.59,4.59,0,0,1,1.64,3.62,5,5,0,0,1-1.64,3.82,7,7,0,0,1-8.62,0Zm-.56,4.56h9.74v27.79H417.9Z"/><path class="cls-1" d="M458.33,91.92a12.66,12.66,0,0,1,4.92,5,15.17,15.17,0,0,1,1.82,7.57,15.33,15.33,0,0,1-1.82,7.59,12.86,12.86,0,0,1-4.92,5,13.69,13.69,0,0,1-6.9,1.77c-3.65,0-6.39-1.08-8.2-3.24v2.77H434V80.38h9.74V93.05a10.37,10.37,0,0,1,7.74-2.87A13.87,13.87,0,0,1,458.33,91.92Zm-4.74,17.46a6.93,6.93,0,0,0,1.64-4.89,6.75,6.75,0,0,0-1.64-4.82,5.93,5.93,0,0,0-8.41,0,6.71,6.71,0,0,0-1.64,4.82,6.89,6.89,0,0,0,1.64,4.89,5.88,5.88,0,0,0,8.41,0Z"/><path class="cls-1" d="M469.59,80.38h9.74v38.05h-9.74Z"/><path class="cls-1" d="M513.89,107h-20.2a5.67,5.67,0,0,0,2.38,3.31,8,8,0,0,0,4.44,1.15,9.73,9.73,0,0,0,3.46-.56,10.47,10.47,0,0,0,2.95-1.85l5.13,5.33q-4,4.52-11.85,4.52a18.89,18.89,0,0,1-8.56-1.85,14,14,0,0,1-.31-25,16.5,16.5,0,0,1,7.85-1.84,16.33,16.33,0,0,1,7.53,1.72,13,13,0,0,1,5.36,5,14.56,14.56,0,0,1,2,7.72C514.05,104.66,514,105.46,513.89,107Zm-18.43-8.62a5.85,5.85,0,0,0-1.93,3.49h11.39A5.83,5.83,0,0,0,503,98.38a6.19,6.19,0,0,0-7.54,0Z"/><path class="cls-1" d="M516.19,40H502V53.87H489.05V40H474.77V27.74h14.28V13.88H502V27.74h14.2Z"/><rect class="cls-1" x="211.63" y="16.29" width="7.64" height="115.66"/></g></g></svg>