<svg xmlns="http://www.w3.org/2000/svg" viewBox="0 0 519.24 404.01"><defs><style>.cls-1{fill:#02c071;}.cls-2{fill:#f1faf8;}</style></defs><title>Logotipo-vertical-oscuro</title><g id="Capa_2" data-name="Capa 2"><g id="Capa_1-2" data-name="Capa 1"><path class="cls-1" d="M351.15,128.74c-4.36-1.63-8.27-3.32-12.32-4.55a62.71,62.71,0,0,0-25.29-2.6,22.42,22.42,0,0,0-4.42,1c-2.35.77-3.9,2.33-3.93,4.91a4.6,4.6,0,0,0,3.74,4.7c4.85,1.27,9.78,2.22,14.66,3.38,7,1.66,14.19,2.79,20.9,5.22,15.43,5.59,21.32,16.26,19,32.35-2,14-10.64,22.18-23.64,26.63-10.72,3.67-21.81,3.67-32.94,2.92a110.89,110.89,0,0,1-32.14-6.79c-1.69-.64-2.4-1.31-1.78-3.26,2.35-7.38,4.5-14.81,6.74-22.22a13.38,13.38,0,0,1,.73-1.56c2.22,1,4.35,1.91,6.49,2.82a72.47,72.47,0,0,0,33,6,20.87,20.87,0,0,0,6.31-1.47,5.52,5.52,0,0,0,3.66-5.23c0-2.49-1.95-3.71-3.95-4.22-6.87-1.76-13.86-3.1-20.71-4.92-6.29-1.66-12.77-3.1-18.62-5.77-9-4.12-13.32-12-14-21.53-1.47-19.76,10.23-34.55,30.2-38a92.86,92.86,0,0,1,52.65,6.14c3.49,1.46,3.42,1.51,2.23,5.2-1.82,5.69-3.56,11.4-5.34,17.1C352,126.12,351.62,127.26,351.15,128.74Z"/><path class="cls-1" d="M77.31,130.94l-3.2-1.41c-11-4.75-22.35-7-34.35-5.5A7.53,7.53,0,0,0,36,125.17a9.69,9.69,0,0,0-3.1,4.2c-.63,2.08.73,3.9,2.73,4.68a53,53,0,0,0,7.86,2.34c7.93,1.8,16,3.18,23.83,5.3,8.11,2.2,15.53,5.93,19.56,13.74s3.68,15.87,1.67,24c-3.44,13.94-13.66,21-27,23.79-20.2,4.21-40,1.84-59.15-5.64C1,197.07.22,196.48.77,194.74c2.31-7.29,4.5-14.62,6.75-21.93a9.13,9.13,0,0,1,.69-1.35c3.93,1.56,7.71,3.23,11.6,4.58A71,71,0,0,0,44.67,180a32.11,32.11,0,0,0,7.55-1.11,5.37,5.37,0,0,0,4.34-5.54c0-2.7-2-4-4.34-4.5-8.18-2-16.48-3.53-24.58-5.8-5.41-1.52-11-3.29-15.72-6.16C1.69,150.69-.8,140.65.21,129.61,1.72,113,14.05,100.72,31.84,98.36c17.14-2.27,33.86-.45,49.88,6.31,3.74,1.58,3.74,1.59,2.53,5.42q-2.94,9.33-5.91,18.67A19.34,19.34,0,0,1,77.31,130.94Z"/><path class="cls-1" d="M263.05,159.59h-33v29.76H207.35v-30H174.12V136.81h33.37c0-8.77,0-17.11,0-25.45,0-6.12.05-6.13,6.1-6.14,5.45,0,10.91,0,16.69,0V136.8h32.76Z"/><path class="cls-2" d="M177,76.14c8.33-6,18.64-9.5,29.77-12.26-16.33-1.46-30,1.39-41.9,8.1-.39-3.21-.69-6.34.08-9.22,1.93-7.21,4.4-14.29,6.53-21.46a16.73,16.73,0,0,0,.21-4.08l-1-.17L157.52,59.11l-13.58-8.37c3.66,7.44,7.84,14,10,20.75,2.21,7-1.24,13.14-5.48,19.43-6.73-7.46-15.91-12.25-25.3-17-4.91-2.46-9.31-5.49-13.93-8.28-.78-.47-1.46-1-2.18-1.55a5.25,5.25,0,0,0,1.75,3.29c5,4.68,9.83,9.5,15.35,13.9,8.33,6.66,13.69,16.24,11.6,21.86-1.26,3.37.4-1-4.88,10.34h0v0l0,.08h0c0,1,0,1.81,0,2.63v5.83h0q0,13.67-.05,27.34c0,5.78,0,11.56-.34,17.32-.49,8.06-6,12.38-14.17,11.59a23.28,23.28,0,0,1-13-5.5c-3.67,6.33-7.29,12.5-10.78,18.75a2.62,2.62,0,0,0,.57,2.32,31.62,31.62,0,0,0,15.49,9.42,63.64,63.64,0,0,0,24,1.44c10.12-1.31,18.58-5.52,24.32-14.24,5.19-7.86,6.36-16.64,6.38-25.68q0-20.93,0-41.86h0q0-3.48,0-7c0-.79-.06-1.59-.1-2.39h-.29C157.54,95,159.08,99.85,161.72,94c4.44-9.85,14.44-14.4,29.16-15.06a27.76,27.76,0,0,0,3.07-.3,18.66,18.66,0,0,0,2.13-.62l-.27-1Z"/><path class="cls-1" d="M185.11,0c3.57,8.63,7.76,16.37,8.23,24.34.53,9.12-4.89,14.71-14.67,18.22-4.5-9.28-11.75-18-10.72-27.45a9,9,0,0,1,3-6C175.06,5.9,179.87,3.29,185.11,0Z"/><path class="cls-1" d="M223.19,41.29c-3.16,4.48-5.4,8.92-9.07,12.59-4.79,4.78-17.82,5.59-26.21,2.35-2.36-.91-3.09-2.11-2.76-3.78,1.51-7.56,8-11.9,19.06-12.34,3.36-.13,6.84,0,10.28.25C217.24,40.52,220,40.94,223.19,41.29Z"/><path class="cls-1" d="M104.83,9.62c9.34,4.88,17.85,9.38,23.43,17.28,3.47,4.92,4.67,10,2.87,14.91-1.16,3.19-3,3.64-6.72,1.85a33.75,33.75,0,0,1-13.82-12.25C106.16,24.6,105.23,17.53,104.83,9.62Z"/><path class="cls-1" d="M114.82,46.92c10.61,2.15,21,3.85,27.72,11.17a12.46,12.46,0,0,1,2.68,4.51c1.86,5.93-4.41,9.2-12.46,6.43C121,65,114.6,58.82,114.82,46.92Z"/><path class="cls-1" d="M235.9,67.66C229.79,79.11,217,83.44,203.61,79.53c-3.62-1.06-4.93-2.32-4.29-4.88,1.6-6.48,7-10.05,16.63-10.21A63.2,63.2,0,0,1,235.9,67.66Z"/><path class="cls-1" d="M78.33,30.92c8.42,3,15.65,6.47,21.36,11.89,4.37,4.14,6.2,8.62,5.75,13.33-.32,3.33-.9,3.7-5.4,2.7C90.53,56.72,83.66,52,80,44.65,77.82,40.11,77.66,35.67,78.33,30.92Z"/><path class="cls-1" d="M182.61,97.52c-2.86-1.88-5.81-3.7-8.56-5.66-2.24-1.59-2.18-2.84.43-3.94,8.17-3.43,16.86-3.49,26.09.7,3.87,1.76,7.32,4.06,11,6.07,2.25,1.23,2.2,2.26,0,2.91C202.64,100.32,193.38,101.76,182.61,97.52Z"/><path class="cls-1" d="M84.08,69.7c10.4,0,19.16.17,27.43,4.52,4.74,2.5,7.41,5.66,8.5,9.49.65,2.29-.32,3.39-3.65,3.58a33.57,33.57,0,0,1-25.75-9.37C88.13,75.63,86.58,72.9,84.08,69.7Z"/><path class="cls-1" d="M152.55,18.66c2.13,9,3,17.33-1.8,25.78-3.85-4.13-8-7.53-10.5-11.69a6.84,6.84,0,0,1,1.42-8.32C144.67,21.76,147,18.35,152.55,18.66Z"/><path class="cls-2" d="M18.3,306.35a37.4,37.4,0,0,1-11.94-5.14l6-13.41a38.27,38.27,0,0,0,10,4.59,37.86,37.86,0,0,0,11.2,1.75Q44,294.14,44,288.9q0-2.75-3-4.08a54.86,54.86,0,0,0-9.59-2.8,91.7,91.7,0,0,1-12.12-3.35A20.49,20.49,0,0,1,11,272.93c-2.33-2.63-3.49-6.19-3.49-10.65a18.46,18.46,0,0,1,3.21-10.61,21.5,21.5,0,0,1,9.6-7.48,39.41,39.41,0,0,1,15.66-2.76,55.11,55.11,0,0,1,12.48,1.43A38.49,38.49,0,0,1,59.25,247l-5.6,13.5a37.49,37.49,0,0,0-17.82-5q-5.41,0-7.89,1.61a4.8,4.8,0,0,0-2.48,4.18c0,1.71,1,3,2.94,3.85a52.71,52.71,0,0,0,9.45,2.67A87.44,87.44,0,0,1,50,271.23a21,21,0,0,1,8.36,5.69q3.52,3.9,3.53,10.61A18.08,18.08,0,0,1,58.7,298a22,22,0,0,1-9.64,7.49,39.14,39.14,0,0,1-15.61,2.8A59.14,59.14,0,0,1,18.3,306.35Z"/><path class="cls-2" d="M107.54,262.05q6.52,5.64,6.52,17.3V307H97.81v-6.42q-3.77,7.24-14.69,7.25a23.1,23.1,0,0,1-10-2,14.87,14.87,0,0,1-6.38-5.46,14.49,14.49,0,0,1-2.16-7.85,12.75,12.75,0,0,1,5.42-11q5.42-3.9,16.71-3.9h9.92q-.47-7.89-10.56-7.9a24.43,24.43,0,0,0-7.26,1.15A19.39,19.39,0,0,0,72.56,274l-5.88-11.85a32.78,32.78,0,0,1,10.06-4.27,47.8,47.8,0,0,1,11.89-1.51Q101,256.4,107.54,262.05ZM93.31,295.33A8.24,8.24,0,0,0,96.62,291V286.7H89.09q-7.62,0-7.62,5.05a4.44,4.44,0,0,0,1.74,3.67A7.51,7.51,0,0,0,88,296.8,9.64,9.64,0,0,0,93.31,295.33Z"/><path class="cls-2" d="M170.4,261.91q5.64,5.5,5.64,16.62V307H158.6V281.38q0-10.2-8.18-10.2a9.3,9.3,0,0,0-7.2,2.94q-2.72,2.94-2.71,8.82V307H123.06V257.23h16.62v5.41a19.79,19.79,0,0,1,7-4.63,23.64,23.64,0,0,1,8.81-1.61Q164.76,256.4,170.4,261.91Z"/><path class="cls-2" d="M211.67,305.85a23.65,23.65,0,0,1-9.46-7l9.92-11.75q5.13,6.71,11.11,6.7a7.49,7.49,0,0,0,6-2.39c1.38-1.59,2.07-3.91,2.07-7V256.77H209.1v-14h40.21V283.3q0,12.49-6.29,18.73t-18.5,6.25A32.84,32.84,0,0,1,211.67,305.85Z"/><path class="cls-2" d="M311.11,257.23V307H294.49v-5.32a17.9,17.9,0,0,1-6.61,4.59,21.6,21.6,0,0,1-8.17,1.56q-9.65,0-15.38-5.69t-5.74-17.08V257.23H276v25q0,5.61,2.12,8.17a7.46,7.46,0,0,0,6.15,2.57,8.69,8.69,0,0,0,6.75-2.89q2.61-2.9,2.61-8.86v-24Z"/><path class="cls-2" d="M360.42,262.05q6.51,5.64,6.52,17.3V307H350.68v-6.42q-3.76,7.24-14.69,7.25a23.13,23.13,0,0,1-10-2,14.93,14.93,0,0,1-6.38-5.46,14.49,14.49,0,0,1-2.16-7.85,12.75,12.75,0,0,1,5.42-11q5.42-3.9,16.71-3.9h9.92q-.47-7.89-10.56-7.9a24.31,24.31,0,0,0-7.25,1.15,19.44,19.44,0,0,0-6.25,3.17l-5.87-11.85a32.61,32.61,0,0,1,10.05-4.27,47.8,47.8,0,0,1,11.89-1.51Q353.91,256.4,360.42,262.05Zm-14.24,33.28a8.19,8.19,0,0,0,3.31-4.31V286.7H342q-7.62,0-7.62,5.05a4.44,4.44,0,0,0,1.74,3.67,7.53,7.53,0,0,0,4.78,1.38A9.64,9.64,0,0,0,346.18,295.33Z"/><path class="cls-2" d="M423.27,261.91q5.64,5.5,5.64,16.62V307H411.47V281.38q0-10.2-8.17-10.2a9.33,9.33,0,0,0-7.21,2.94q-2.71,2.94-2.71,8.82V307H375.93V257.23h16.62v5.41a19.79,19.79,0,0,1,7-4.63,23.65,23.65,0,0,1,8.82-1.61Q417.62,256.4,423.27,261.91Z"/><path class="cls-2" d="M18.3,402.08a37.4,37.4,0,0,1-11.94-5.14l6-13.41a38.27,38.27,0,0,0,10,4.59,37.86,37.86,0,0,0,11.2,1.75q10.47,0,10.47-5.24c0-1.83-1-3.2-3-4.08a54.86,54.86,0,0,0-9.59-2.8,90,90,0,0,1-12.12-3.36A20.37,20.37,0,0,1,11,368.66q-3.49-4-3.49-10.66a18.45,18.45,0,0,1,3.21-10.6,21.5,21.5,0,0,1,9.6-7.48,39.41,39.41,0,0,1,15.66-2.76,55.68,55.68,0,0,1,12.48,1.42,38.5,38.5,0,0,1,10.84,4.18l-5.6,13.5a37.37,37.37,0,0,0-17.82-5q-5.41,0-7.89,1.61a4.8,4.8,0,0,0-2.48,4.18c0,1.71,1,3,2.94,3.85a52.71,52.71,0,0,0,9.45,2.67A87.44,87.44,0,0,1,50,367a21,21,0,0,1,8.36,5.69q3.52,3.9,3.53,10.61a18.08,18.08,0,0,1-3.21,10.46,22,22,0,0,1-9.64,7.49A39.14,39.14,0,0,1,33.45,404,59.58,59.58,0,0,1,18.3,402.08Z"/><path class="cls-2" d="M80,400.24a25.09,25.09,0,0,1,0-44.85,31.41,31.41,0,0,1,14.46-3.26,31.65,31.65,0,0,1,14.51,3.26,24.37,24.37,0,0,1,10,9.09,26.46,26.46,0,0,1,0,26.58,24.57,24.57,0,0,1-10,9.18,31.17,31.17,0,0,1-14.51,3.31A31,31,0,0,1,80,400.24Zm21.94-13.72q2.94-3.18,2.94-8.77c0-3.68-1-6.55-2.94-8.64a10.65,10.65,0,0,0-15.06,0c-1.95,2.09-2.93,5-2.93,8.64s1,6.65,2.93,8.77a10.55,10.55,0,0,0,15.06,0Z"/><path class="cls-2" d="M136.38,402.12a32.24,32.24,0,0,1-9.74-3.71l5.24-11.94a29.44,29.44,0,0,0,8.08,3.35,35.93,35.93,0,0,0,9.27,1.24,14.87,14.87,0,0,0,6-.87,2.73,2.73,0,0,0,1.79-2.53c0-1.1-.72-1.88-2.15-2.34A44.85,44.85,0,0,0,148,384a67,67,0,0,1-10.15-1.93,15.54,15.54,0,0,1-7.21-4.41q-3-3.21-3-9a13.6,13.6,0,0,1,2.85-8.5,18.82,18.82,0,0,1,8.31-5.87,35.54,35.54,0,0,1,13.08-2.16,53.29,53.29,0,0,1,10.75,1.1,30.82,30.82,0,0,1,8.9,3.12l-5.23,11.85A29,29,0,0,0,152,364.52a14.18,14.18,0,0,0-6.06,1A2.86,2.86,0,0,0,144,368c0,1.17.7,2,2.11,2.44a48.37,48.37,0,0,0,7,1.42A77.81,77.81,0,0,1,163.28,374a15.64,15.64,0,0,1,7,4.36c2,2.11,3,5.07,3,8.86a13.47,13.47,0,0,1-2.85,8.41,18.65,18.65,0,0,1-8.4,5.83,37.88,37.88,0,0,1-13.36,2.11A53.56,53.56,0,0,1,136.38,402.12Z"/><path class="cls-2" d="M215.16,400.7a17.56,17.56,0,0,1-5.37,2.11,29.9,29.9,0,0,1-6.75.74q-9.73,0-15-4.78t-5.23-14.23V367.83h-7.26v-13h7.26v-13h17.44v13h11.39v13H200.28v16.53a5.83,5.83,0,0,0,1.43,4.17,5,5,0,0,0,3.81,1.52,9.23,9.23,0,0,0,5.32-1.56Z"/><path class="cls-2" d="M271,382.25H234.81a10.12,10.12,0,0,0,4.27,5.92,14.31,14.31,0,0,0,7.94,2.06,17.07,17.07,0,0,0,6.2-1,18.32,18.32,0,0,0,5.28-3.3l9.18,9.55q-7.26,8.07-21.21,8.08a33.73,33.73,0,0,1-15.33-3.31,24.34,24.34,0,0,1-13.87-22.49,24.61,24.61,0,0,1,13.31-22.32,31.39,31.39,0,0,1,27.55-.23,23.48,23.48,0,0,1,9.6,8.91,26.2,26.2,0,0,1,3.53,13.82Q271.26,378.11,271,382.25Zm-33-15.43a10.35,10.35,0,0,0-3.45,6.24h20.39a10.35,10.35,0,0,0-3.45-6.24,11,11,0,0,0-13.49,0Z"/><path class="cls-2" d="M326.68,357.64q5.64,5.5,5.64,16.62v28.46H314.88V377.1q0-10.19-8.18-10.19a9.3,9.3,0,0,0-7.2,2.94q-2.72,2.94-2.71,8.81v24.06H279.34V353H296v5.42a20,20,0,0,1,7-4.64,23.64,23.64,0,0,1,8.81-1.6Q321,352.13,326.68,357.64Z"/><path class="cls-2" d="M344.26,344.78a8.9,8.9,0,0,1,0-13.22A11.07,11.07,0,0,1,352,328.9a11.42,11.42,0,0,1,7.71,2.52,8.16,8.16,0,0,1,2.94,6.48,8.91,8.91,0,0,1-2.94,6.84,12.39,12.39,0,0,1-15.42,0Zm-1,8.17h17.44v49.77H343.25Z"/><path class="cls-2" d="M415.65,355.25a22.78,22.78,0,0,1,8.81,8.95,29.87,29.87,0,0,1,0,27.14,23,23,0,0,1-8.81,9,24.53,24.53,0,0,1-12.35,3.17q-9.82,0-14.69-5.79v5H372V334.59h17.44v22.68q5.06-5.14,13.87-5.14A24.8,24.8,0,0,1,415.65,355.25Zm-8.49,31.27q2.93-3.18,2.93-8.77c0-3.68-1-6.55-2.93-8.64a10.65,10.65,0,0,0-15.06,0c-2,2.09-2.94,5-2.94,8.64s1,6.65,2.94,8.77a10.55,10.55,0,0,0,15.06,0Z"/><path class="cls-2" d="M435.8,334.59h17.45v68.13H435.8Z"/><path class="cls-2" d="M515.14,382.25H479a10.12,10.12,0,0,0,4.27,5.92,14.31,14.31,0,0,0,7.94,2.06,17.07,17.07,0,0,0,6.2-1,18.32,18.32,0,0,0,5.28-3.3l9.18,9.55q-7.26,8.07-21.21,8.08a33.73,33.73,0,0,1-15.33-3.31,24.34,24.34,0,0,1-13.87-22.49,24.61,24.61,0,0,1,13.31-22.32,31.39,31.39,0,0,1,27.55-.23,23.48,23.48,0,0,1,9.6,8.91,26.2,26.2,0,0,1,3.53,13.82Q515.41,378.11,515.14,382.25Zm-33-15.43a10.35,10.35,0,0,0-3.45,6.24h20.39a10.35,10.35,0,0,0-3.45-6.24,11,11,0,0,0-13.49,0Z"/><path class="cls-1" d="M519.24,262.3H493.82v24.82H470.65V262.3H445.08v-22h25.57V215.51h23.17v24.83h25.42Z"/></g></g></svg>