<svg xmlns="http://www.w3.org/2000/svg" viewBox="0 0 1212.01 309.81"><defs><style>.cls-1{fill:#068e57;}.cls-2{fill:#0d2b2c;}</style></defs><title>Logotipo</title><g id="Capa_2" data-name="Capa 2"><g id="Capa_1-2" data-name="Capa 1"><path class="cls-1" d="M454.66,169.66c-5.65-2.14-10.71-4.37-16-6A79.82,79.82,0,0,0,406,160.24a28.3,28.3,0,0,0-5.73,1.3c-3,1-5,3.07-5.08,6.47A6,6,0,0,0,400,174.2c6.27,1.68,12.66,2.93,19,4.46,9,2.19,18.38,3.68,27.07,6.88,20,7.36,27.59,21.43,24.64,42.63-2.57,18.46-13.77,29.23-30.61,35.1-13.87,4.83-28.23,4.83-42.64,3.84a141.57,141.57,0,0,1-41.62-8.94c-2.19-.85-3.1-1.73-2.3-4.3,3-9.72,5.83-19.52,8.73-29.29a18.84,18.84,0,0,1,.94-2.05c2.88,1.28,5.63,2.52,8.4,3.71,13.63,5.87,27.82,8.86,42.69,7.93a26.28,26.28,0,0,0,8.17-1.94,7.28,7.28,0,0,0,4.74-6.9c0-3.27-2.52-4.87-5.12-5.55-8.89-2.32-17.94-4.09-26.81-6.49-8.14-2.19-16.53-4.08-24.11-7.6-11.68-5.43-17.25-15.77-18.17-28.38-1.91-26,13.24-45.52,39.1-50.09,23.47-4.14,46.24-1.24,68.17,8.1,4.51,1.92,4.42,2,2.89,6.86-2.36,7.49-4.62,15-6.92,22.52Z"/><path class="cls-1" d="M100.1,172.56,96,170.71c-14.2-6.26-28.93-9.26-44.47-7.26-1.68.22-3.66.49-4.85,1.5a12.63,12.63,0,0,0-4,5.54c-.81,2.75,1,5.14,3.53,6.17a70.27,70.27,0,0,0,10.18,3.08c10.28,2.38,20.7,4.19,30.86,7,10.5,2.89,20.1,7.82,25.32,18.1,5.14,10.13,4.77,20.92,2.17,31.66C110.21,254.87,97,264.2,79.74,267.85c-26.15,5.54-51.76,2.42-76.58-7.43C1.35,259.7.29,258.93,1,256.64c3-9.61,5.82-19.27,8.73-28.91a12.89,12.89,0,0,1,.9-1.77c5.08,2.06,10,4.25,15,6a90.48,90.48,0,0,0,32.19,5.19,40,40,0,0,0,9.77-1.46,7.07,7.07,0,0,0,5.63-7.29c-.06-3.57-2.62-5.21-5.62-5.94-10.6-2.6-21.35-4.65-31.83-7.64-7-2-14.22-4.34-20.36-8.11C2.18,198.58-1,185.36.27,170.81c2-21.89,17.92-38.08,40.95-41.18,22.2-3,43.85-.6,64.58,8.31,4.84,2.08,4.85,2.1,3.29,7.14q-3.81,12.3-7.66,24.6A25.42,25.42,0,0,1,100.1,172.56Z"/><path class="cls-1" d="M340.59,210.32H297.91v39.22H268.47V210h-43V180.3h43.2c0-11.56,0-22.55,0-33.55,0-8.06.07-8.07,7.9-8.09h21.61v41.62h42.42Z"/><path class="cls-2" d="M229.15,100.34c10.78-7.94,24.13-12.53,38.54-16.16-21.14-1.92-38.84,1.84-54.24,10.67-.51-4.23-.9-8.35.1-12.14,2.5-9.5,5.69-18.84,8.44-28.28.5-1.69.21-3.58.28-5.38L221,48.82,204,77.9l-17.59-11c4.75,9.8,10.16,18.5,12.91,27.34,2.87,9.2-1.59,17.32-7.09,25.61-8.72-9.84-20.59-16.15-32.75-22.36-6.36-3.25-12.06-7.24-18-10.91-1-.62-1.89-1.36-2.83-2a7,7,0,0,0,2.27,4.33c6.52,6.16,12.73,12.51,19.87,18.32,10.79,8.78,17.73,21.39,15,28.8-1.62,4.44.52-1.3-6.31,13.63h0v.06l0,.11h0v3.46q0,3.85,0,7.69h0q0,18-.06,36c0,7.61,0,15.23-.44,22.82-.63,10.63-7.74,16.31-18.34,15.28a29.88,29.88,0,0,1-16.85-7.25c-4.75,8.34-9.44,16.48-14,24.71a3.48,3.48,0,0,0,.75,3.06,40.74,40.74,0,0,0,20,12.4,81,81,0,0,0,31.06,1.91c13.1-1.73,24.05-7.28,31.49-18.76,6.71-10.36,8.24-21.93,8.26-33.85q.06-27.58,0-55.17h0c0-3.06,0-6.11,0-9.17,0-1-.08-2.09-.13-3.15h-.38c-6.78-24.59-4.79-18.17-1.37-25.9,5.75-13,18.69-19,37.76-19.84a31.8,31.8,0,0,0,4-.4,23.86,23.86,0,0,0,2.76-.81l-.35-1.31Z"/><path class="cls-1" d="M239.67,0c4.63,11.38,10.05,21.57,10.66,32.08.69,12-6.34,19.38-19,24-5.83-12.23-15.21-23.66-13.88-36.18.31-2.9,1.58-6.11,3.88-7.92C226.66,7.78,232.89,4.34,239.67,0Z"/><path class="cls-1" d="M289,54.41c-4.08,5.91-7,11.75-11.74,16.59-6.2,6.31-23.07,7.37-33.94,3.1-3-1.19-4-2.78-3.56-5,2-10,10.42-15.69,24.67-16.26,4.36-.17,8.86.06,13.31.33C281.27,53.4,284.86,54,289,54.41Z"/><path class="cls-1" d="M135.73,12.68c12.09,6.43,23.11,12.36,30.34,22.77,4.49,6.48,6.05,13.13,3.71,19.64-1.5,4.21-3.86,4.81-8.7,2.44A43.93,43.93,0,0,1,143.19,41.4C137.45,32.42,136.25,23.11,135.73,12.68Z"/><path class="cls-1" d="M148.66,61.83c13.74,2.84,27.24,5.07,35.89,14.72A16.4,16.4,0,0,1,188,82.49c2.41,7.82-5.72,12.13-16.14,8.48C156.64,85.62,148.38,77.52,148.66,61.83Z"/><path class="cls-1" d="M305.43,89.16c-7.9,15.09-24.46,20.8-41.81,15.64-4.68-1.39-6.37-3.06-5.55-6.43,2.08-8.54,9.12-13.24,21.53-13.44A80.44,80.44,0,0,1,305.43,89.16Z"/><path class="cls-1" d="M101.42,40.75c10.89,4,20.26,8.52,27.65,15.66,5.66,5.46,8,11.37,7.45,17.58-.41,4.38-1.17,4.87-7,3.55-12.31-2.79-21.2-9-25.88-18.7C100.76,52.86,100.55,47,101.42,40.75Z"/><path class="cls-1" d="M236.44,128.51c-3.71-2.48-7.53-4.88-11.09-7.46-2.89-2.09-2.82-3.73.56-5.18,10.58-4.52,21.83-4.61,33.78.92,5,2.32,9.48,5.34,14.24,8,2.91,1.63,2.85,3,.06,3.85C262.37,132.21,250.39,134.11,236.44,128.51Z"/><path class="cls-1" d="M108.87,91.85c13.46,0,24.8.23,35.5,6,6.14,3.28,9.61,7.45,11,12.5.84,3-.4,4.46-4.72,4.71-14,.82-24.68-4.21-33.34-12.35C114.11,99.67,112.1,96.07,108.87,91.85Z"/><path class="cls-1" d="M197.52,24.59c2.76,11.79,3.95,22.84-2.33,34-5-5.44-10.38-9.92-13.59-15.4a9.11,9.11,0,0,1,1.82-11C187.32,28.67,190.32,24.18,197.52,24.59Z"/><path class="cls-2" d="M555.1,151.71A48.91,48.91,0,0,1,539.45,145l7.83-17.58a53.34,53.34,0,0,0,27.81,8.31q13.73,0,13.73-6.87c0-2.41-1.31-4.19-3.92-5.36a72.57,72.57,0,0,0-12.58-3.67,120.07,120.07,0,0,1-15.89-4.39,26.79,26.79,0,0,1-11-7.53q-4.58-5.17-4.58-14A24.17,24.17,0,0,1,545.11,80q4.21-6.21,12.58-9.82t20.53-3.61a72.14,72.14,0,0,1,16.38,1.87,50.15,50.15,0,0,1,14.21,5.48l-7.35,17.7q-12-6.51-23.36-6.51-7.11,0-10.35,2.11a6.32,6.32,0,0,0-3.25,5.48c0,2.25,1.28,3.93,3.85,5.06a70.53,70.53,0,0,0,12.4,3.49,116.17,116.17,0,0,1,16,4.39,27.59,27.59,0,0,1,11,7.47q4.64,5.11,4.64,13.91a23.7,23.7,0,0,1-4.22,13.72q-4.22,6.15-12.64,9.82T575,154.24A77.76,77.76,0,0,1,555.1,151.71Z"/><path class="cls-2" d="M672.14,93.61q8.55,7.41,8.55,22.7v36.24H659.37v-8.43q-4.93,9.52-19.26,9.52A30.27,30.27,0,0,1,627,151a19.45,19.45,0,0,1-8.36-7.17,18.94,18.94,0,0,1-2.83-10.29q0-9.27,7.1-14.39T644.8,114h13q-.6-10.35-13.85-10.35a31.85,31.85,0,0,0-9.51,1.5,25.45,25.45,0,0,0-8.19,4.16l-7.7-15.54a42.93,42.93,0,0,1,13.18-5.6,62.93,62.93,0,0,1,15.59-2Q663.59,86.21,672.14,93.61Zm-18.67,43.65a10.73,10.73,0,0,0,4.34-5.66v-5.66h-9.87q-10,0-10,6.63a5.81,5.81,0,0,0,2.29,4.81,9.86,9.86,0,0,0,6.26,1.81A12.6,12.6,0,0,0,653.47,137.26Z"/><path class="cls-2" d="M754.56,93.43q7.4,7.23,7.4,21.8v37.32H739.09V119q0-13.36-10.72-13.37a12.21,12.21,0,0,0-9.45,3.86q-3.55,3.85-3.56,11.56v31.54H692.49V87.29h21.79v7.1a26.15,26.15,0,0,1,9.15-6.08A31.11,31.11,0,0,1,735,86.21Q747.16,86.21,754.56,93.43Z"/><path class="cls-2" d="M808.68,151.05a30.92,30.92,0,0,1-12.4-9.21l13-15.42q6.75,8.79,14.57,8.79,5.17,0,7.89-3.13c1.8-2.08,2.71-5.13,2.71-9.15V86.69H805.31V68.27h52.74v53.22q0,16.38-8.25,24.56t-24.27,8.19A43.17,43.17,0,0,1,808.68,151.05Z"/><path class="cls-2" d="M939.08,87.29v65.26H917.29v-7a23.41,23.41,0,0,1-8.67,6,28.4,28.4,0,0,1-10.72,2q-12.64,0-20.17-7.47t-7.52-22.39V87.29h22.87V120q0,7.35,2.77,10.72t8.07,3.37a11.39,11.39,0,0,0,8.85-3.79q3.43-3.8,3.43-11.62V87.29Z"/><path class="cls-2" d="M1003.74,93.61q8.55,7.41,8.55,22.7v36.24H991v-8.43q-4.94,9.52-19.26,9.52A30.27,30.27,0,0,1,958.58,151a19.45,19.45,0,0,1-8.36-7.17,18.94,18.94,0,0,1-2.83-10.29q0-9.27,7.1-14.39T976.4,114h13q-.6-10.35-13.85-10.35a31.85,31.85,0,0,0-9.51,1.5,25.45,25.45,0,0,0-8.19,4.16l-7.7-15.54a42.93,42.93,0,0,1,13.18-5.6,62.93,62.93,0,0,1,15.59-2Q995.19,86.21,1003.74,93.61Zm-18.67,43.65a10.73,10.73,0,0,0,4.34-5.66v-5.66h-9.87q-10,0-10,6.63a5.81,5.81,0,0,0,2.29,4.81,9.86,9.86,0,0,0,6.26,1.81A12.6,12.6,0,0,0,985.07,137.26Z"/><path class="cls-2" d="M1086.16,93.43q7.39,7.23,7.4,21.8v37.32h-22.88V119q0-13.36-10.71-13.37a12.21,12.21,0,0,0-9.45,3.86Q1047,113.31,1047,121v31.54h-22.87V87.29h21.79v7.1a26.15,26.15,0,0,1,9.15-6.08,31.11,31.11,0,0,1,11.56-2.1Q1078.76,86.21,1086.16,93.43Z"/><path class="cls-2" d="M555.1,277.24a48.69,48.69,0,0,1-15.65-6.74l7.83-17.58a53.34,53.34,0,0,0,27.81,8.31q13.73,0,13.73-6.87c0-2.4-1.31-4.19-3.92-5.35a71.5,71.5,0,0,0-12.58-3.68,120.07,120.07,0,0,1-15.89-4.39,26.7,26.7,0,0,1-11-7.53q-4.58-5.17-4.58-14a24.18,24.18,0,0,1,4.22-13.91q4.21-6.21,12.58-9.81t20.53-3.62A72.71,72.71,0,0,1,594.6,194a50.45,50.45,0,0,1,14.21,5.48l-7.35,17.7q-12-6.51-23.36-6.5-7.11,0-10.35,2.1a6.33,6.33,0,0,0-3.25,5.48q0,3.38,3.85,5.06a69.66,69.66,0,0,0,12.4,3.49,116,116,0,0,1,16,4.4,27.47,27.47,0,0,1,11,7.46q4.64,5.11,4.64,13.91a23.7,23.7,0,0,1-4.22,13.72q-4.22,6.15-12.64,9.82T575,279.77A77.76,77.76,0,0,1,555.1,277.24Z"/><path class="cls-2" d="M636,274.83a32.23,32.23,0,0,1-17.94-29.5A32.16,32.16,0,0,1,636,216a44.36,44.36,0,0,1,38,0,32.08,32.08,0,0,1,13.13,11.92,33,33,0,0,1-13.13,46.9,43.58,43.58,0,0,1-37.92,0Zm28.77-18q3.86-4.15,3.86-11.5T664.79,234a14,14,0,0,0-19.74,0q-3.85,4.11-3.86,11.32t3.86,11.5a13.79,13.79,0,0,0,19.74,0Z"/><path class="cls-2" d="M710,277.3a42.71,42.71,0,0,1-12.77-4.87L704,256.77a38.93,38.93,0,0,0,10.6,4.4,47.52,47.52,0,0,0,12.16,1.62q5.54,0,7.89-1.14a3.6,3.6,0,0,0,2.35-3.31c0-1.45-.95-2.47-2.83-3.07a58.66,58.66,0,0,0-9-1.75A87.47,87.47,0,0,1,711.93,251a20.51,20.51,0,0,1-9.45-5.78q-4-4.22-4-11.8a17.86,17.86,0,0,1,3.73-11.14,24.78,24.78,0,0,1,10.9-7.7,46.56,46.56,0,0,1,17.15-2.83,69.53,69.53,0,0,1,14.09,1.44,40.52,40.52,0,0,1,11.68,4.1l-6.86,15.53A38.06,38.06,0,0,0,730.41,228q-5.42,0-7.94,1.26c-1.69.84-2.53,2-2.53,3.31,0,1.53.92,2.59,2.77,3.19a63,63,0,0,0,9.15,1.87,100.79,100.79,0,0,1,13.36,2.77,20.38,20.38,0,0,1,9.22,5.72q3.9,4.15,3.91,11.62a17.69,17.69,0,0,1-3.73,11q-3.74,4.88-11,7.65a49.55,49.55,0,0,1-17.52,2.77A69.92,69.92,0,0,1,710,277.3Z"/><path class="cls-2" d="M813.25,275.44a23,23,0,0,1-7,2.76,38.66,38.66,0,0,1-8.85,1q-12.76,0-19.63-6.26t-6.86-18.67V232.33h-9.51v-17.1h9.51v-17h22.88v17h14.93v17.1H793.75V254a7.65,7.65,0,0,0,1.87,5.48,6.49,6.49,0,0,0,5,2,12.11,12.11,0,0,0,7-2.05Z"/><path class="cls-2" d="M886.46,251.23H839a13.33,13.33,0,0,0,5.6,7.77A18.67,18.67,0,0,0,855,261.71a22.42,22.42,0,0,0,8.13-1.33,23.94,23.94,0,0,0,6.92-4.33l12,12.52q-9.51,10.6-27.82,10.6a44.39,44.39,0,0,1-20.1-4.34,33,33,0,0,1-.73-58.76,41.14,41.14,0,0,1,36.13-.3,30.78,30.78,0,0,1,12.58,11.68,34.29,34.29,0,0,1,4.63,18.12C886.82,245.74,886.7,247.62,886.46,251.23ZM843.18,231a13.54,13.54,0,0,0-4.52,8.18h26.73a13.58,13.58,0,0,0-4.51-8.18,14.52,14.52,0,0,0-17.7,0Z"/><path class="cls-2" d="M959.49,219q7.41,7.23,7.41,21.8v37.32H944V244.49q0-13.37-10.72-13.36a12.24,12.24,0,0,0-9.45,3.85q-3.55,3.86-3.55,11.56v31.54H897.42V212.82h21.8v7.11a25.7,25.7,0,0,1,9.15-6.08,30.87,30.87,0,0,1,11.56-2.11Q952.08,211.74,959.49,219Z"/><path class="cls-2" d="M982.55,202.11a11.69,11.69,0,0,1,0-17.34,14.47,14.47,0,0,1,10.11-3.49q6.27,0,10.12,3.31a10.69,10.69,0,0,1,3.85,8.49,11.67,11.67,0,0,1-3.85,9,16.29,16.29,0,0,1-20.23.06Zm-1.32,10.71h22.87v65.26H981.23Z"/><path class="cls-2" d="M1076.17,215.83a29.92,29.92,0,0,1,11.55,11.74,39.11,39.11,0,0,1,0,35.58A30.11,30.11,0,0,1,1076.17,275a32.14,32.14,0,0,1-16.2,4.16q-12.88,0-19.26-7.59v6.5h-21.8V188.74h22.88v29.74q6.62-6.73,18.18-6.74A32.61,32.61,0,0,1,1076.17,215.83Zm-11.14,41q3.85-4.15,3.85-11.5T1065,234a14,14,0,0,0-19.75,0q-3.85,4.11-3.85,11.32t3.85,11.5a13.8,13.8,0,0,0,19.75,0Z"/><path class="cls-2" d="M1102.59,188.74h22.88v89.34h-22.88Z"/><path class="cls-2" d="M1206.63,251.23h-47.45a13.33,13.33,0,0,0,5.6,7.77,18.67,18.67,0,0,0,10.42,2.71,22.42,22.42,0,0,0,8.13-1.33,23.94,23.94,0,0,0,6.92-4.33l12,12.52q-9.51,10.6-27.81,10.6a44.4,44.4,0,0,1-20.11-4.34,32.95,32.95,0,0,1-.72-58.76,41.12,41.12,0,0,1,36.12-.3,30.72,30.72,0,0,1,12.58,11.68,34.3,34.3,0,0,1,4.64,18.12C1207,245.74,1206.87,247.62,1206.63,251.23ZM1163.34,231a13.59,13.59,0,0,0-4.52,8.18h26.73A13.53,13.53,0,0,0,1181,231a14.52,14.52,0,0,0-17.7,0Z"/><path class="cls-2" d="M1212,93.94h-33.34v32.55h-30.38V93.94h-33.53V65.14h33.53V32.59h30.38V65.14H1212Z"/><rect class="cls-1" x="496.91" y="38.25" width="17.93" height="271.56"/></g></g></svg>