<svg xmlns="http://www.w3.org/2000/svg" viewBox="0 0 512.33 400.53"><defs><style>.cls-1{fill:#068e57;}.cls-2{fill:#0d2b2c;}</style></defs><title>Logotipo-vertical</title><g id="Capa_2" data-name="Capa 2"><g id="Capa_1-2" data-name="Capa 1"><path class="cls-1" d="M351.15,128.74c-4.36-1.63-8.27-3.32-12.32-4.55a62.71,62.71,0,0,0-25.29-2.6,22.42,22.42,0,0,0-4.42,1c-2.35.77-3.9,2.33-3.93,4.91a4.6,4.6,0,0,0,3.74,4.7c4.85,1.27,9.78,2.22,14.66,3.38,7,1.66,14.19,2.79,20.9,5.22,15.43,5.59,21.32,16.26,19,32.35-2,14-10.64,22.18-23.64,26.63-10.72,3.67-21.81,3.67-32.94,2.92a110.89,110.89,0,0,1-32.14-6.79c-1.69-.64-2.4-1.31-1.78-3.26,2.35-7.38,4.5-14.81,6.74-22.22a13.38,13.38,0,0,1,.73-1.56c2.22,1,4.35,1.91,6.49,2.82a72.47,72.47,0,0,0,33,6,20.87,20.87,0,0,0,6.31-1.47,5.52,5.52,0,0,0,3.66-5.23c0-2.49-1.95-3.71-3.95-4.22-6.87-1.76-13.86-3.1-20.71-4.92-6.29-1.66-12.77-3.1-18.62-5.77-9-4.12-13.32-12-14-21.53-1.47-19.76,10.23-34.55,30.2-38a92.86,92.86,0,0,1,52.65,6.14c3.49,1.46,3.42,1.51,2.23,5.2-1.82,5.69-3.56,11.4-5.34,17.1C352,126.12,351.62,127.26,351.15,128.74Z"/><path class="cls-1" d="M77.31,130.94l-3.2-1.41c-11-4.75-22.35-7-34.35-5.5A7.53,7.53,0,0,0,36,125.17a9.69,9.69,0,0,0-3.1,4.2c-.63,2.08.73,3.9,2.73,4.68a53,53,0,0,0,7.86,2.34c7.93,1.8,16,3.18,23.83,5.3,8.11,2.2,15.53,5.93,19.56,13.74s3.68,15.87,1.67,24c-3.44,13.94-13.66,21-27,23.79-20.2,4.21-40,1.84-59.15-5.64C1,197.07.22,196.48.77,194.74c2.31-7.29,4.5-14.62,6.75-21.93a9.13,9.13,0,0,1,.69-1.35c3.93,1.56,7.71,3.23,11.6,4.58A71,71,0,0,0,44.67,180a32.11,32.11,0,0,0,7.55-1.11,5.37,5.37,0,0,0,4.34-5.54c0-2.7-2-4-4.34-4.5-8.18-2-16.48-3.53-24.58-5.8-5.41-1.52-11-3.29-15.72-6.16C1.69,150.69-.8,140.65.21,129.61,1.72,113,14.05,100.72,31.84,98.36c17.14-2.27,33.86-.45,49.88,6.31,3.74,1.58,3.74,1.59,2.53,5.42q-2.94,9.33-5.91,18.67A19.34,19.34,0,0,1,77.31,130.94Z"/><path class="cls-1" d="M263.05,159.59h-33v29.76H207.35v-30H174.12V136.81h33.37c0-8.77,0-17.11,0-25.45,0-6.12.05-6.13,6.1-6.14,5.45,0,10.91,0,16.69,0V136.8h32.76Z"/><path class="cls-2" d="M177,76.14c8.33-6,18.64-9.5,29.77-12.26-16.33-1.46-30,1.39-41.9,8.1-.39-3.21-.69-6.34.08-9.22,1.93-7.21,4.4-14.29,6.53-21.46a16.73,16.73,0,0,0,.21-4.08l-1-.17L157.52,59.11l-13.58-8.37c3.66,7.44,7.84,14,10,20.75,2.21,7-1.24,13.14-5.48,19.43-6.73-7.46-15.91-12.25-25.3-17-4.91-2.46-9.31-5.49-13.93-8.28-.78-.47-1.46-1-2.18-1.55a5.25,5.25,0,0,0,1.75,3.29c5,4.68,9.83,9.5,15.35,13.9,8.33,6.66,13.69,16.24,11.6,21.86-1.26,3.37.4-1-4.88,10.34h0v0l0,.08h0c0,1,0,1.81,0,2.63v5.83h0q0,13.67-.05,27.34c0,5.78,0,11.56-.34,17.32-.49,8.06-6,12.38-14.17,11.59a23.28,23.28,0,0,1-13-5.5c-3.67,6.33-7.29,12.5-10.78,18.75a2.62,2.62,0,0,0,.57,2.32,31.62,31.62,0,0,0,15.49,9.42,63.64,63.64,0,0,0,24,1.44c10.12-1.31,18.58-5.52,24.32-14.24,5.19-7.86,6.36-16.64,6.38-25.68q0-20.93,0-41.86h0q0-3.48,0-7c0-.79-.06-1.59-.1-2.39h-.29C157.54,95,159.08,99.85,161.72,94c4.44-9.85,14.44-14.4,29.16-15.06a27.76,27.76,0,0,0,3.07-.3,18.66,18.66,0,0,0,2.13-.62l-.27-1Z"/><path class="cls-1" d="M185.11,0c3.57,8.63,7.76,16.37,8.23,24.34.53,9.12-4.89,14.71-14.67,18.22-4.5-9.28-11.75-18-10.72-27.45a9,9,0,0,1,3-6C175.06,5.9,179.87,3.29,185.11,0Z"/><path class="cls-1" d="M223.19,41.29c-3.16,4.48-5.4,8.92-9.07,12.59-4.79,4.78-17.82,5.59-26.21,2.35-2.36-.91-3.09-2.11-2.76-3.78,1.51-7.56,8-11.9,19.06-12.34,3.36-.13,6.84,0,10.28.25C217.24,40.52,220,40.94,223.19,41.29Z"/><path class="cls-1" d="M104.83,9.62c9.34,4.88,17.85,9.38,23.43,17.28,3.47,4.92,4.67,10,2.87,14.91-1.16,3.19-3,3.64-6.72,1.85a33.75,33.75,0,0,1-13.82-12.25C106.16,24.6,105.23,17.53,104.83,9.62Z"/><path class="cls-1" d="M114.82,46.92c10.61,2.15,21,3.85,27.72,11.17a12.46,12.46,0,0,1,2.68,4.51c1.86,5.93-4.41,9.2-12.46,6.43C121,65,114.6,58.82,114.82,46.92Z"/><path class="cls-1" d="M235.9,67.66C229.79,79.11,217,83.44,203.61,79.53c-3.62-1.06-4.93-2.32-4.29-4.88,1.6-6.48,7-10.05,16.63-10.21A63.2,63.2,0,0,1,235.9,67.66Z"/><path class="cls-1" d="M78.33,30.92c8.42,3,15.65,6.47,21.36,11.89,4.37,4.14,6.2,8.62,5.75,13.33-.32,3.33-.9,3.7-5.4,2.7C90.53,56.72,83.66,52,80,44.65,77.82,40.11,77.66,35.67,78.33,30.92Z"/><path class="cls-1" d="M182.61,97.52c-2.86-1.88-5.81-3.7-8.56-5.66-2.24-1.59-2.18-2.84.43-3.94,8.17-3.43,16.86-3.49,26.09.7,3.87,1.76,7.32,4.06,11,6.07,2.25,1.23,2.2,2.26,0,2.91C202.64,100.32,193.38,101.76,182.61,97.52Z"/><path class="cls-1" d="M84.08,69.7c10.4,0,19.16.17,27.43,4.52,4.74,2.5,7.41,5.66,8.5,9.49.65,2.29-.32,3.39-3.65,3.58a33.57,33.57,0,0,1-25.75-9.37C88.13,75.63,86.58,72.9,84.08,69.7Z"/><path class="cls-1" d="M152.55,18.66c2.13,9,3,17.33-1.8,25.78-3.85-4.13-8-7.53-10.5-11.69a6.84,6.84,0,0,1,1.42-8.32C144.67,21.76,147,18.35,152.55,18.66Z"/><path class="cls-2" d="M19.92,304.54a36.71,36.71,0,0,1-11.73-5.05l5.86-13.18a38.08,38.08,0,0,0,9.84,4.51,37.23,37.23,0,0,0,11,1.72q10.29,0,10.29-5.15,0-2.7-2.93-4a54,54,0,0,0-9.43-2.76,90,90,0,0,1-11.92-3.29,20,20,0,0,1-8.21-5.64q-3.43-3.88-3.43-10.47a18.12,18.12,0,0,1,3.16-10.43,21.11,21.11,0,0,1,9.43-7.35,38.72,38.72,0,0,1,15.39-2.71,54.55,54.55,0,0,1,12.28,1.4,37.4,37.4,0,0,1,10.65,4.11L54.67,259.5a36.76,36.76,0,0,0-17.51-4.87q-5.32,0-7.76,1.58A4.72,4.72,0,0,0,27,260.32q0,2.52,2.89,3.79a52.05,52.05,0,0,0,9.3,2.61,86.69,86.69,0,0,1,12,3.3,20.72,20.72,0,0,1,8.22,5.59q3.47,3.84,3.47,10.43a17.75,17.75,0,0,1-3.16,10.29,21.43,21.43,0,0,1-9.47,7.35,38.29,38.29,0,0,1-15.35,2.76A58.56,58.56,0,0,1,19.92,304.54Z"/><path class="cls-2" d="M107.65,261q6.41,5.55,6.41,17v27.16h-16v-6.32Q94.38,306,83.64,306a22.67,22.67,0,0,1-9.84-2,14.49,14.49,0,0,1-6.27-5.37,14.19,14.19,0,0,1-2.12-7.72,12.5,12.5,0,0,1,5.32-10.78q5.33-3.84,16.43-3.84h9.75q-.45-7.76-10.38-7.76a23.83,23.83,0,0,0-7.13,1.13,19,19,0,0,0-6.14,3.11l-5.78-11.64a31.89,31.89,0,0,1,9.89-4.2,47.08,47.08,0,0,1,11.69-1.49Q101.24,255.44,107.65,261Zm-14,32.72a8.06,8.06,0,0,0,3.25-4.24v-4.24h-7.4q-7.5,0-7.49,5a4.37,4.37,0,0,0,1.71,3.61,7.39,7.39,0,0,0,4.69,1.35A9.54,9.54,0,0,0,93.66,293.71Z"/><path class="cls-2" d="M169.43,260.86q5.55,5.42,5.55,16.33v28H157.83V280q0-10-8-10a9.21,9.21,0,0,0-7.09,2.89q-2.66,2.89-2.66,8.67v23.64H122.9V256.25h16.34v5.33A19.28,19.28,0,0,1,146.1,257a23.24,23.24,0,0,1,8.66-1.58Q163.88,255.44,169.43,260.86Z"/><path class="cls-2" d="M210,304a23.14,23.14,0,0,1-9.3-6.9l9.75-11.55q5.06,6.59,10.92,6.59a7.4,7.4,0,0,0,5.91-2.35c1.36-1.56,2-3.85,2-6.86V255.8H207.47V242H247v39.9q0,12.27-6.18,18.41t-18.19,6.14A32.16,32.16,0,0,1,210,304Z"/><path class="cls-2" d="M307.75,256.25v48.92H291.41v-5.23a17.62,17.62,0,0,1-6.5,4.51,21.25,21.25,0,0,1-8,1.53q-9.48,0-15.12-5.59t-5.64-16.79V256.25h17.15V280.8q0,5.51,2.07,8a7.39,7.39,0,0,0,6.05,2.52,8.54,8.54,0,0,0,6.64-2.84q2.57-2.85,2.57-8.71V256.25Z"/><path class="cls-2" d="M356.21,261q6.41,5.55,6.41,17v27.16h-16v-6.32Q342.95,306,332.2,306a22.6,22.6,0,0,1-9.83-2,14.58,14.58,0,0,1-6.28-5.37,14.28,14.28,0,0,1-2.12-7.72,12.51,12.51,0,0,1,5.33-10.78q5.32-3.84,16.42-3.84h9.75q-.45-7.76-10.38-7.76a23.93,23.93,0,0,0-7.13,1.13,19.06,19.06,0,0,0-6.14,3.11l-5.77-11.64a31.83,31.83,0,0,1,9.88-4.2,47.14,47.14,0,0,1,11.69-1.49Q349.8,255.44,356.21,261Zm-14,32.72a8,8,0,0,0,3.25-4.24v-4.24h-7.4q-7.49,0-7.49,5a4.37,4.37,0,0,0,1.71,3.61,7.42,7.42,0,0,0,4.7,1.35A9.51,9.51,0,0,0,342.22,293.71Z"/><path class="cls-2" d="M418,260.86q5.55,5.42,5.55,16.33v28H406.4V280q0-10-8-10a9.17,9.17,0,0,0-7.08,2.89q-2.67,2.89-2.67,8.67v23.64H371.47V256.25H387.8v5.33a19.37,19.37,0,0,1,6.86-4.56,23.33,23.33,0,0,1,8.67-1.58Q412.43,255.44,418,260.86Z"/><path class="cls-2" d="M19.92,398.64a36.49,36.49,0,0,1-11.73-5.06l5.86-13.17a38.08,38.08,0,0,0,9.84,4.51,37.54,37.54,0,0,0,11,1.71q10.29,0,10.29-5.14c0-1.81-1-3.14-2.93-4a54.13,54.13,0,0,0-9.43-2.75,90,90,0,0,1-11.92-3.29,20.19,20.19,0,0,1-8.21-5.64q-3.43-3.89-3.43-10.48a18.09,18.09,0,0,1,3.16-10.42,21.2,21.2,0,0,1,9.43-7.36,38.91,38.91,0,0,1,15.39-2.7,54,54,0,0,1,12.28,1.4,37.69,37.69,0,0,1,10.65,4.1L54.67,353.6a36.76,36.76,0,0,0-17.51-4.87c-3.55,0-6.14.52-7.76,1.58a4.72,4.72,0,0,0-2.44,4.1q0,2.54,2.89,3.79a51,51,0,0,0,9.3,2.62,85.29,85.29,0,0,1,12,3.3,20.61,20.61,0,0,1,8.22,5.59q3.47,3.84,3.47,10.43a17.75,17.75,0,0,1-3.16,10.29,21.5,21.5,0,0,1-9.47,7.35,38.3,38.3,0,0,1-15.35,2.75A58.55,58.55,0,0,1,19.92,398.64Z"/><path class="cls-2" d="M80.57,396.83a24.67,24.67,0,0,1,0-44.09,30.87,30.87,0,0,1,14.21-3.2,31.13,31.13,0,0,1,14.26,3.2,24.08,24.08,0,0,1,9.84,8.94,24.38,24.38,0,0,1,3.52,13,24.63,24.63,0,0,1-3.52,13.09,24.2,24.2,0,0,1-9.84,9,30.66,30.66,0,0,1-14.26,3.25A30.49,30.49,0,0,1,80.57,396.83Zm21.57-13.49q2.89-3.12,2.89-8.62t-2.89-8.48a10.45,10.45,0,0,0-14.8,0q-2.9,3.06-2.89,8.48t2.89,8.62a10.36,10.36,0,0,0,14.8,0Z"/><path class="cls-2" d="M136,398.68a32.06,32.06,0,0,1-9.57-3.65l5.15-11.73a29,29,0,0,0,7.94,3.29,35.57,35.57,0,0,0,9.11,1.22,14.68,14.68,0,0,0,5.92-.86,2.69,2.69,0,0,0,1.76-2.48c0-1.08-.71-1.85-2.13-2.3a43.66,43.66,0,0,0-6.72-1.31,65,65,0,0,1-10-1.9,15.36,15.36,0,0,1-7.09-4.33c-2-2.1-3-5.05-3-8.84a13.39,13.39,0,0,1,2.8-8.35,18.54,18.54,0,0,1,8.17-5.78,35.09,35.09,0,0,1,12.86-2.12,52.13,52.13,0,0,1,10.56,1.08,30.47,30.47,0,0,1,8.76,3.07l-5.15,11.64a28.57,28.57,0,0,0-14.08-3.61,14.09,14.09,0,0,0-6,.95,2.82,2.82,0,0,0-1.89,2.48c0,1.15.69,1.94,2.08,2.4a47.54,47.54,0,0,0,6.85,1.39,77.1,77.1,0,0,1,10,2.08,15.29,15.29,0,0,1,6.91,4.29c1.95,2.07,2.93,5,2.93,8.71a13.22,13.22,0,0,1-2.8,8.26,18.3,18.3,0,0,1-8.26,5.73,37.07,37.07,0,0,1-13.13,2.07A52.29,52.29,0,0,1,136,398.68Z"/><path class="cls-2" d="M213.43,397.28a17.18,17.18,0,0,1-5.28,2.08,29.42,29.42,0,0,1-6.63.72q-9.57,0-14.72-4.69t-5.14-14V365h-7.13V352.16h7.13V339.43h17.15v12.73H210V365H198.81v16.25a5.74,5.74,0,0,0,1.4,4.11,4.9,4.9,0,0,0,3.74,1.49,9.13,9.13,0,0,0,5.24-1.54Z"/><path class="cls-2" d="M268.31,379.14H232.74a10,10,0,0,0,4.2,5.82,14,14,0,0,0,7.81,2,16.68,16.68,0,0,0,6.09-1,17.82,17.82,0,0,0,5.19-3.25l9,9.39q-7.14,8-20.85,7.94a33.28,33.28,0,0,1-15.08-3.25,24.7,24.7,0,0,1-.54-44,30.82,30.82,0,0,1,27.08-.23,23,23,0,0,1,9.43,8.76,25.66,25.66,0,0,1,3.48,13.58C268.58,375,268.49,376.44,268.31,379.14ZM235.86,364a10.18,10.18,0,0,0-3.39,6.14h20a10.22,10.22,0,0,0-3.38-6.14,10.87,10.87,0,0,0-13.27,0Z"/><path class="cls-2" d="M323.05,355q5.55,5.42,5.55,16.34v28H311.45V374.09q0-10-8-10a9.16,9.16,0,0,0-7.09,2.89c-1.78,1.93-2.66,4.81-2.66,8.66v23.65H276.52V350.35h16.34v5.33a19.33,19.33,0,0,1,6.85-4.56,23.33,23.33,0,0,1,8.67-1.58Q317.5,349.54,323.05,355Z"/><path class="cls-2" d="M340.33,342.32a8.75,8.75,0,0,1,0-13,10.87,10.87,0,0,1,7.58-2.62,11.19,11.19,0,0,1,7.58,2.49,8,8,0,0,1,2.89,6.36,8.72,8.72,0,0,1-2.89,6.72,10.71,10.71,0,0,1-7.58,2.67A10.87,10.87,0,0,1,340.33,342.32Zm-1,8h17.15v48.92H339.34Z"/><path class="cls-2" d="M410.5,352.61a22.38,22.38,0,0,1,8.67,8.8,29.38,29.38,0,0,1,0,26.67A22.68,22.68,0,0,1,410.5,397a24.11,24.11,0,0,1-12.14,3.11q-9.64,0-14.44-5.68v4.87H367.59v-67h17.15v22.29q5-5.05,13.62-5A24.29,24.29,0,0,1,410.5,352.61Zm-8.34,30.73q2.88-3.12,2.88-8.62t-2.88-8.48a10.47,10.47,0,0,0-14.81,0c-1.92,2-2.89,4.87-2.89,8.48s1,6.54,2.89,8.62a10.37,10.37,0,0,0,14.81,0Z"/><path class="cls-2" d="M430.32,332.3h17.14v67H430.32Z"/><path class="cls-2" d="M508.3,379.14H472.73a10,10,0,0,0,4.2,5.82,14,14,0,0,0,7.81,2,16.68,16.68,0,0,0,6.09-1,17.82,17.82,0,0,0,5.19-3.25l9,9.39q-7.14,8-20.85,7.94a33.28,33.28,0,0,1-15.08-3.25,24.7,24.7,0,0,1-.54-44,30.82,30.82,0,0,1,27.08-.23,23.07,23.07,0,0,1,9.43,8.76,25.66,25.66,0,0,1,3.48,13.58C508.57,375,508.48,376.44,508.3,379.14ZM475.85,364a10.18,10.18,0,0,0-3.39,6.14h20a10.22,10.22,0,0,0-3.38-6.14,10.87,10.87,0,0,0-13.27,0Z"/><path class="cls-1" d="M512.33,261.24h-25v24.4H464.57v-24.4H439.43V239.65h25.14v-24.4h22.77v24.4h25Z"/></g></g></svg>