<svg xmlns="http://www.w3.org/2000/svg" viewBox="0 0 521.13 134.23"><defs><style>.cls-1{fill:#f1faf8;}</style></defs><title>Logotipo-blanco</title><g id="Capa_2" data-name="Capa 2"><g id="Capa_1-2" data-name="Capa 1"><path class="cls-1" d="M197,73.51c-2.44-.93-4.64-1.9-6.91-2.6a34.43,34.43,0,0,0-14.19-1.48,11.72,11.72,0,0,0-2.48.56,2.86,2.86,0,0,0-2.2,2.81,2.61,2.61,0,0,0,2.1,2.68c2.72.73,5.48,1.27,8.22,1.93,3.92,1,8,1.59,11.73,3,8.65,3.19,12,9.28,10.67,18.47-1.11,8-6,12.67-13.26,15.21-6,2.09-12.23,2.09-18.47,1.66a61.31,61.31,0,0,1-18-3.87c-.94-.37-1.34-.75-1-1.87,1.31-4.21,2.52-8.45,3.78-12.69a6.65,6.65,0,0,1,.41-.88C158.6,97,159.8,97.51,161,98a40,40,0,0,0,18.49,3.43,11.37,11.37,0,0,0,3.54-.84,3.15,3.15,0,0,0,2.05-3,2.52,2.52,0,0,0-2.21-2.41c-3.86-1-7.77-1.77-11.62-2.81a63.68,63.68,0,0,1-10.44-3.29c-5.06-2.35-7.48-6.83-7.88-12.29-.82-11.29,5.74-19.73,16.95-21.71a51.26,51.26,0,0,1,29.53,3.51c2,.83,1.92.86,1.25,3-1,3.25-2,6.51-3,9.76C197.46,72,197.26,72.66,197,73.51Z"/><path class="cls-1" d="M43.37,74.77,41.57,74a35.68,35.68,0,0,0-19.26-3.14,4.17,4.17,0,0,0-2.11.65,5.48,5.48,0,0,0-1.74,2.4A2.22,2.22,0,0,0,20,76.54a30.72,30.72,0,0,0,4.41,1.34c4.45,1,9,1.81,13.37,3s8.71,3.38,11,7.84,2.06,9.06.93,13.72c-1.93,8-7.66,12-15.13,13.58-11.33,2.4-22.43,1-33.18-3.22-.78-.31-1.25-.64-.94-1.64C1.73,107,3,102.85,4.22,98.67a5.07,5.07,0,0,1,.39-.77c2.2.89,4.32,1.85,6.51,2.62a39.38,39.38,0,0,0,13.94,2.25,17.25,17.25,0,0,0,4.23-.64A3.06,3.06,0,0,0,31.73,99c0-1.54-1.13-2.25-2.43-2.57-4.6-1.13-9.25-2-13.79-3.31a35.28,35.28,0,0,1-8.82-3.52C1,86-.45,80.31.12,74,1,64.52,7.88,57.51,17.86,56.16a52,52,0,0,1,28,3.61c2.1.9,2.1.9,1.43,3.09Q45.62,68.19,44,73.52A11.77,11.77,0,0,1,43.37,74.77Z"/><path class="cls-1" d="M147.57,91.13H129.08v17H116.32V91H97.68V78.12H116.4c0-5,0-9.77,0-14.54,0-3.49,0-3.49,3.43-3.5h9.36v18h18.38Z"/><path class="cls-1" d="M99.28,43.47c4.67-3.44,10.46-5.42,16.7-7-9.15-.83-16.83.8-23.5,4.63a14.11,14.11,0,0,1,0-5.27c1.08-4.11,2.46-8.16,3.65-12.25a10,10,0,0,0,.13-2.33l-.58-.1-7.36,12.6L80.75,29c2,4.25,4.4,8,5.59,11.85,1.24,4-.69,7.51-3.07,11.09-3.78-4.26-8.93-7-14.19-9.68-2.76-1.41-5.23-3.14-7.82-4.73-.44-.27-.82-.59-1.22-.89a3,3,0,0,0,1,1.88c2.82,2.67,5.51,5.42,8.61,7.94,4.67,3.8,7.68,9.27,6.51,12.48-.71,1.92.22-.57-2.74,5.91h0v0l0,0h0v4.83h0q0,7.8,0,15.61c0,3.3,0,6.6-.19,9.89-.27,4.6-3.35,7.06-7.94,6.62a13,13,0,0,1-7.3-3.14c-2.06,3.61-4.1,7.13-6.05,10.7a1.51,1.51,0,0,0,.32,1.33,17.69,17.69,0,0,0,8.69,5.37,34.94,34.94,0,0,0,13.46.83c5.67-.75,10.42-3.16,13.64-8.13,2.91-4.49,3.57-9.5,3.58-14.67q0-11.94,0-23.9h0v-4c0-.46,0-.91-.06-1.37h-.16c-2.94-10.65-2.08-7.88-.6-11.22,2.49-5.62,8.1-8.22,16.36-8.6a15.65,15.65,0,0,0,1.72-.17,11.88,11.88,0,0,0,1.2-.36l-.16-.56Z"/><path class="cls-1" d="M103.84,0c2,4.93,4.36,9.35,4.62,13.9.3,5.21-2.74,8.4-8.23,10.4-2.52-5.3-6.59-10.25-6-15.67A5.13,5.13,0,0,1,95.9,5.19C98.21,3.37,100.91,1.88,103.84,0Z"/><path class="cls-1" d="M125.21,23.58c-1.77,2.56-3,5.09-5.09,7.18-2.69,2.74-10,3.2-14.71,1.35-1.32-.52-1.73-1.21-1.54-2.16.85-4.32,4.51-6.8,10.69-7,1.89-.07,3.83,0,5.76.15C121.87,23.14,123.42,23.38,125.21,23.58Z"/><path class="cls-1" d="M58.81,5.49c5.24,2.79,10,5.36,13.14,9.87,2,2.81,2.62,5.69,1.61,8.51-.65,1.82-1.67,2.08-3.77,1.06a19,19,0,0,1-7.75-7C59.55,14.05,59,10,58.81,5.49Z"/><path class="cls-1" d="M64.41,26.79C70.37,28,76.21,29,80,33.17a7,7,0,0,1,1.51,2.57c1,3.39-2.48,5.26-7,3.67C67.87,37.1,64.29,33.59,64.41,26.79Z"/><path class="cls-1" d="M132.34,38.63c-3.43,6.54-10.6,9-18.12,6.78-2-.6-2.76-1.33-2.41-2.79.91-3.7,4-5.73,9.33-5.82A34.85,34.85,0,0,1,132.34,38.63Z"/><path class="cls-1" d="M43.94,17.66c4.72,1.71,8.78,3.69,12,6.78,2.45,2.37,3.49,4.93,3.23,7.62-.18,1.89-.51,2.11-3,1.54-5.33-1.21-9.19-3.89-11.22-8.11A13.16,13.16,0,0,1,43.94,17.66Z"/><path class="cls-1" d="M102.44,55.68c-1.6-1.07-3.26-2.11-4.8-3.23-1.26-.91-1.22-1.62.24-2.25a17.3,17.3,0,0,1,14.64.4c2.17,1,4.1,2.32,6.17,3.47,1.26.7,1.23,1.29,0,1.66C113.68,57.28,108.49,58.1,102.44,55.68Z"/><path class="cls-1" d="M47.17,39.8c5.83,0,10.75.1,15.38,2.58a8.84,8.84,0,0,1,4.77,5.42c.37,1.3-.17,1.93-2,2a18.63,18.63,0,0,1-14.45-5.35A38.52,38.52,0,0,1,47.17,39.8Z"/><path class="cls-1" d="M85.58,10.65c1.2,5.11,1.71,9.9-1,14.72-2.16-2.35-4.5-4.3-5.89-6.67A4,4,0,0,1,79.47,14C81.16,12.42,82.46,10.48,85.58,10.65Z"/><path class="cls-1" d="M236.51,65.73a21.12,21.12,0,0,1-6.78-2.92l3.39-7.62a21.91,21.91,0,0,0,5.69,2.61,21.64,21.64,0,0,0,6.36,1q6,0,6-3a2.46,2.46,0,0,0-1.7-2.32A30,30,0,0,0,244,51.91,51.12,51.12,0,0,1,237.09,50a11.52,11.52,0,0,1-4.75-3.26,8.8,8.8,0,0,1-2-6.05,10.48,10.48,0,0,1,1.82-6,12.32,12.32,0,0,1,5.45-4.25,22.55,22.55,0,0,1,8.9-1.56,31.28,31.28,0,0,1,7.09.81A21.84,21.84,0,0,1,259.78,32L256.6,39.7a21.24,21.24,0,0,0-10.12-2.82,8.57,8.57,0,0,0-4.49.91,2.75,2.75,0,0,0-1.41,2.38,2.36,2.36,0,0,0,1.67,2.19,29.68,29.68,0,0,0,5.37,1.51,49.82,49.82,0,0,1,6.92,1.91A12,12,0,0,1,259.28,49a8.65,8.65,0,0,1,2,6A10.29,10.29,0,0,1,259.47,61,12.46,12.46,0,0,1,254,65.24a22.19,22.19,0,0,1-8.87,1.59A33.76,33.76,0,0,1,236.51,65.73Z"/><path class="cls-1" d="M287.22,40.56q3.7,3.21,3.7,9.83V66.1h-9.23V62.45q-2.15,4.11-8.35,4.12a13.11,13.11,0,0,1-5.68-1.15A8.46,8.46,0,0,1,264,62.31a8.19,8.19,0,0,1-1.23-4.46,7.25,7.25,0,0,1,3.08-6.23q3.08-2.22,9.5-2.22H281q-.25-4.49-6-4.48a13.61,13.61,0,0,0-4.12.65,10.88,10.88,0,0,0-3.55,1.8L264,40.64a18.51,18.51,0,0,1,5.72-2.43,27.28,27.28,0,0,1,6.75-.86Q283.52,37.35,287.22,40.56Zm-8.09,18.91A4.6,4.6,0,0,0,281,57V54.57h-4.28c-2.88,0-4.33,1-4.33,2.87a2.49,2.49,0,0,0,1,2.08,4.2,4.2,0,0,0,2.71.79A5.44,5.44,0,0,0,279.13,59.47Z"/><path class="cls-1" d="M322.93,40.48q3.21,3.14,3.21,9.44V66.1h-9.91V51.54q0-5.79-4.65-5.79a5.3,5.3,0,0,0-4.09,1.67,7.14,7.14,0,0,0-1.54,5V66.1H296V37.82h9.44V40.9a11.19,11.19,0,0,1,4-2.64,13.61,13.61,0,0,1,5-.91A11.6,11.6,0,0,1,322.93,40.48Z"/><path class="cls-1" d="M346.38,65.45a13.46,13.46,0,0,1-5.37-4l5.63-6.67c1.95,2.54,4.05,3.8,6.31,3.8a4.28,4.28,0,0,0,3.42-1.35,5.93,5.93,0,0,0,1.17-4V37.56H344.92v-8h22.85V52.64q0,7.09-3.57,10.64t-10.52,3.55A18.66,18.66,0,0,1,346.38,65.45Z"/><path class="cls-1" d="M402.88,37.82V66.1h-9.44v-3a10.19,10.19,0,0,1-3.76,2.61,12.28,12.28,0,0,1-4.64.89,11.85,11.85,0,0,1-8.74-3.24Q373,60.11,373,53.63V37.82H383V52a7.27,7.27,0,0,0,1.2,4.64,4.25,4.25,0,0,0,3.5,1.47,4.92,4.92,0,0,0,3.83-1.65,7.3,7.3,0,0,0,1.49-5V37.82Z"/><path class="cls-1" d="M430.89,40.56q3.71,3.21,3.71,9.83V66.1h-9.24V62.45q-2.13,4.11-8.34,4.12a13.16,13.16,0,0,1-5.69-1.15,8.46,8.46,0,0,1-3.63-3.11,8.27,8.27,0,0,1-1.22-4.46,7.23,7.23,0,0,1,3.08-6.23q3.07-2.22,9.49-2.22h5.64q-.27-4.49-6-4.48a13.67,13.67,0,0,0-4.13.65,10.73,10.73,0,0,0-3.54,1.8l-3.34-6.73a18.45,18.45,0,0,1,5.71-2.43,27.36,27.36,0,0,1,6.76-.86Q427.18,37.35,430.89,40.56Zm-8.08,18.91A4.65,4.65,0,0,0,424.69,57V54.57h-4.28c-2.89,0-4.33,1-4.33,2.87a2.51,2.51,0,0,0,1,2.08,4.2,4.2,0,0,0,2.71.79A5.47,5.47,0,0,0,422.81,59.47Z"/><path class="cls-1" d="M466.6,40.48q3.21,3.14,3.21,9.44V66.1H459.9V51.54q0-5.79-4.64-5.79a5.32,5.32,0,0,0-4.1,1.67,7.19,7.19,0,0,0-1.54,5V66.1h-9.91V37.82h9.44V40.9a11.32,11.32,0,0,1,4-2.64,13.61,13.61,0,0,1,5-.91A11.58,11.58,0,0,1,466.6,40.48Z"/><path class="cls-1" d="M236.51,120.12a21.12,21.12,0,0,1-6.78-2.92l3.39-7.62a21.91,21.91,0,0,0,5.69,2.61,21.64,21.64,0,0,0,6.36,1q6,0,6-3a2.46,2.46,0,0,0-1.7-2.32A30,30,0,0,0,244,106.3a51.12,51.12,0,0,1-6.88-1.91,11.52,11.52,0,0,1-4.75-3.26,8.8,8.8,0,0,1-2-6,10.48,10.48,0,0,1,1.82-6,12.32,12.32,0,0,1,5.45-4.25,22.55,22.55,0,0,1,8.9-1.56,31.28,31.28,0,0,1,7.09.81,21.84,21.84,0,0,1,6.16,2.37l-3.18,7.67a21.24,21.24,0,0,0-10.12-2.82,8.57,8.57,0,0,0-4.49.91,2.75,2.75,0,0,0-1.41,2.38,2.36,2.36,0,0,0,1.67,2.19,29.68,29.68,0,0,0,5.37,1.51,49.82,49.82,0,0,1,6.92,1.91,12,12,0,0,1,4.74,3.23,8.65,8.65,0,0,1,2,6,10.29,10.29,0,0,1-1.82,5.94,12.46,12.46,0,0,1-5.48,4.26,22.19,22.19,0,0,1-8.87,1.59A33.76,33.76,0,0,1,236.51,120.12Z"/><path class="cls-1" d="M271.57,119.08a14.27,14.27,0,0,1,0-25.49,19.23,19.23,0,0,1,16.46,0,13.91,13.91,0,0,1,5.69,5.17A14.32,14.32,0,0,1,288,119.08a18.89,18.89,0,0,1-16.43,0Zm12.47-7.8a7.06,7.06,0,0,0,1.67-5,6.91,6.91,0,0,0-1.67-4.91,6.06,6.06,0,0,0-8.56,0,6.91,6.91,0,0,0-1.67,4.91,7.06,7.06,0,0,0,1.67,5,6,6,0,0,0,8.56,0Z"/><path class="cls-1" d="M303.6,120.15a18.8,18.8,0,0,1-5.53-2.11l3-6.79a16.84,16.84,0,0,0,4.6,1.91,20.48,20.48,0,0,0,5.27.7,8.47,8.47,0,0,0,3.41-.49,1.56,1.56,0,0,0,1-1.44c0-.62-.41-1.07-1.23-1.33a26,26,0,0,0-3.88-.76,37.73,37.73,0,0,1-5.77-1.09,8.83,8.83,0,0,1-4.09-2.51,7.14,7.14,0,0,1-1.73-5.11,7.68,7.68,0,0,1,1.62-4.82A10.66,10.66,0,0,1,305,93a20.19,20.19,0,0,1,7.44-1.23,29.86,29.86,0,0,1,6.1.63,17.38,17.38,0,0,1,5.06,1.77l-3,6.73a16.53,16.53,0,0,0-8.14-2.09,8.19,8.19,0,0,0-3.44.55,1.65,1.65,0,0,0-1.1,1.44q0,1,1.2,1.38a27.74,27.74,0,0,0,4,.81,44.41,44.41,0,0,1,5.79,1.2,8.83,8.83,0,0,1,4,2.48,7,7,0,0,1,1.69,5,7.67,7.67,0,0,1-1.61,4.77,10.53,10.53,0,0,1-4.78,3.32,21.36,21.36,0,0,1-7.59,1.2A30.48,30.48,0,0,1,303.6,120.15Z"/><path class="cls-1" d="M348.36,119.34a10,10,0,0,1-3.05,1.2,16.84,16.84,0,0,1-3.83.42c-3.69,0-6.52-.91-8.51-2.72s-3-4.5-3-8.08v-9.5h-4.12V93.25H330V85.9h9.91v7.35h6.47v7.41h-6.47v9.39a3.35,3.35,0,0,0,.81,2.38,2.84,2.84,0,0,0,2.16.86,5.27,5.27,0,0,0,3-.89Z"/><path class="cls-1" d="M380.08,108.85H359.53a5.72,5.72,0,0,0,2.42,3.37,8.14,8.14,0,0,0,4.52,1.17,9.84,9.84,0,0,0,3.52-.57,10.37,10.37,0,0,0,3-1.88l5.21,5.43Q374.09,121,366.15,121a19.26,19.26,0,0,1-8.71-1.88,14.27,14.27,0,0,1-.31-25.46,17.78,17.78,0,0,1,15.65-.13,13.29,13.29,0,0,1,5.45,5.06,14.86,14.86,0,0,1,2,7.85C380.24,106.47,380.19,107.29,380.08,108.85Zm-18.75-8.76a5.88,5.88,0,0,0-2,3.55H371a5.92,5.92,0,0,0-1.95-3.55,6.27,6.27,0,0,0-7.67,0Z"/><path class="cls-1" d="M411.72,94.87q3.21,3.13,3.21,9.44v16.18H405V105.93q0-5.79-4.64-5.79a5.32,5.32,0,0,0-4.1,1.67,7.14,7.14,0,0,0-1.54,5v13.67h-9.91V92.21h9.44v3.08a11.32,11.32,0,0,1,4-2.64,13.61,13.61,0,0,1,5-.91A11.59,11.59,0,0,1,411.72,94.87Z"/><path class="cls-1" d="M421.71,87.57a5.06,5.06,0,0,1,0-7.51,6.3,6.3,0,0,1,4.39-1.52A6.49,6.49,0,0,1,430.48,80a4.62,4.62,0,0,1,1.67,3.67,5.06,5.06,0,0,1-1.67,3.89,6.21,6.21,0,0,1-4.38,1.54A6.3,6.3,0,0,1,421.71,87.57Zm-.57,4.64h9.91v28.28h-9.91Z"/><path class="cls-1" d="M462.28,93.52a12.86,12.86,0,0,1,5,5.08,16.91,16.91,0,0,1,0,15.42,13.09,13.09,0,0,1-5,5.14,14,14,0,0,1-7,1.8c-3.72,0-6.51-1.1-8.35-3.29v2.82h-9.44V81.78h9.91V94.66a10.57,10.57,0,0,1,7.88-2.92A14,14,0,0,1,462.28,93.52Zm-4.83,17.76a7.06,7.06,0,0,0,1.67-5,6.91,6.91,0,0,0-1.67-4.91,6.06,6.06,0,0,0-8.56,0,6.91,6.91,0,0,0-1.67,4.91,7.06,7.06,0,0,0,1.67,5,6,6,0,0,0,8.56,0Z"/><path class="cls-1" d="M473.73,81.78h9.91v38.71h-9.91Z"/><path class="cls-1" d="M518.8,108.85H498.25a5.72,5.72,0,0,0,2.42,3.37,8.11,8.11,0,0,0,4.51,1.17,9.9,9.9,0,0,0,3.53-.57,10.37,10.37,0,0,0,3-1.88l5.21,5.43q-4.12,4.59-12,4.59a19.26,19.26,0,0,1-8.71-1.88,13.94,13.94,0,0,1-5.82-5.22,14.3,14.3,0,0,1,5.51-20.24,17.78,17.78,0,0,1,15.65-.13A13.29,13.29,0,0,1,517,98.55a14.86,14.86,0,0,1,2,7.85C519,106.47,518.9,107.29,518.8,108.85Zm-18.75-8.76a5.88,5.88,0,0,0-2,3.55h11.58a5.88,5.88,0,0,0-2-3.55,6.25,6.25,0,0,0-7.66,0Z"/><path class="cls-1" d="M521.13,40.7H506.69V54.81H493.53V40.7H479V28.22h14.53V14.12h13.16v14.1h14.44Z"/><rect class="cls-1" x="212.3" y="16.57" width="7.77" height="117.66"/></g></g></svg>