<svg xmlns="http://www.w3.org/2000/svg" viewBox="0 0 512.88 188.49"><defs><style>.cls-1{fill:#f1faf8;}.cls-2{fill:#02c071;}</style></defs><title>Texto-oscuro</title><g id="Capa_2" data-name="Capa 2"><g id="Capa_1-2" data-name="Capa 1"><path class="cls-1" d="M11.94,90.84A37.18,37.18,0,0,1,0,85.69l6-13.4a38.42,38.42,0,0,0,10,4.59,38.17,38.17,0,0,0,11.2,1.74q10.47,0,10.47-5.23,0-2.76-3-4.09a55.47,55.47,0,0,0-9.59-2.8A90.18,90.18,0,0,1,13,63.15a20.3,20.3,0,0,1-8.36-5.74Q1.09,53.47,1.1,46.76a18.36,18.36,0,0,1,3.22-10.6,21.48,21.48,0,0,1,9.59-7.49,39.63,39.63,0,0,1,15.66-2.75,55.1,55.1,0,0,1,12.48,1.42,38.2,38.2,0,0,1,10.84,4.18L47.29,45a37.37,37.37,0,0,0-17.81-5q-5.43,0-7.9,1.61a4.82,4.82,0,0,0-2.48,4.17c0,1.72,1,3,2.94,3.86a53.14,53.14,0,0,0,9.45,2.66,88.86,88.86,0,0,1,12.17,3.35A21.1,21.1,0,0,1,52,61.41q3.52,3.9,3.53,10.6a18.09,18.09,0,0,1-3.21,10.47A21.93,21.93,0,0,1,42.7,90a39,39,0,0,1-15.61,2.8A59.58,59.58,0,0,1,11.94,90.84Z"/><path class="cls-1" d="M101.19,46.53q6.51,5.65,6.52,17.31V91.48H91.45V85.05q-3.77,7.26-14.69,7.26a23.1,23.1,0,0,1-10-2,14.88,14.88,0,0,1-6.38-5.47A14.44,14.44,0,0,1,58.21,77a12.74,12.74,0,0,1,5.42-11Q69,62.1,80.34,62.1h9.92q-.47-7.91-10.56-7.9a24,24,0,0,0-7.25,1.15,19.33,19.33,0,0,0-6.25,3.16L60.33,46.67a32.37,32.37,0,0,1,10-4.27,47.8,47.8,0,0,1,11.89-1.51Q94.66,40.89,101.19,46.53ZM87,79.82a8.22,8.22,0,0,0,3.31-4.32V71.19H82.73q-7.62,0-7.62,5a4.44,4.44,0,0,0,1.74,3.67,7.53,7.53,0,0,0,4.78,1.38A9.64,9.64,0,0,0,87,79.82Z"/><path class="cls-1" d="M164,46.39q5.64,5.52,5.64,16.62V91.48H152.24V65.86q0-10.19-8.17-10.19a9.33,9.33,0,0,0-7.21,2.94c-1.81,2-2.71,4.89-2.71,8.81V91.48H116.7V41.71h16.62v5.42a19.81,19.81,0,0,1,7-4.64,23.65,23.65,0,0,1,8.82-1.6Q158.39,40.89,164,46.39Z"/><path class="cls-1" d="M205.31,90.33a23.54,23.54,0,0,1-9.46-7l9.92-11.76q5.14,6.7,11.11,6.71a7.52,7.52,0,0,0,6-2.39q2.07-2.39,2.07-7V41.25H202.74v-14H243V67.79q0,12.48-6.29,18.73t-18.51,6.24A32.88,32.88,0,0,1,205.31,90.33Z"/><path class="cls-1" d="M304.75,41.71V91.48H288.13V86.15a17.82,17.82,0,0,1-6.61,4.59,21.57,21.57,0,0,1-8.17,1.57q-9.64,0-15.38-5.7t-5.74-17.08V41.71h17.45v25c0,3.73.7,6.46,2.11,8.17a7.49,7.49,0,0,0,6.15,2.57,8.69,8.69,0,0,0,6.75-2.89c1.74-1.93,2.62-4.88,2.62-8.86v-24Z"/><path class="cls-1" d="M354.06,46.53q6.51,5.65,6.52,17.31V91.48H344.32V85.05q-3.76,7.26-14.69,7.26a23.13,23.13,0,0,1-10-2,14.88,14.88,0,0,1-6.38-5.47A14.44,14.44,0,0,1,311.09,77a12.74,12.74,0,0,1,5.41-11q5.42-3.9,16.71-3.9h9.92q-.47-7.91-10.56-7.9a24,24,0,0,0-7.25,1.15,19.43,19.43,0,0,0-6.25,3.16L313.2,46.67a32.37,32.37,0,0,1,10.05-4.27,47.8,47.8,0,0,1,11.89-1.51Q347.55,40.89,354.06,46.53ZM339.83,79.82a8.21,8.21,0,0,0,3.3-4.32V71.19H335.6q-7.62,0-7.62,5a4.43,4.43,0,0,0,1.75,3.67,7.48,7.48,0,0,0,4.77,1.38A9.7,9.7,0,0,0,339.83,79.82Z"/><path class="cls-1" d="M416.91,46.39q5.64,5.52,5.65,16.62V91.48H405.11V65.86q0-10.19-8.17-10.19a9.34,9.34,0,0,0-7.21,2.94c-1.81,2-2.71,4.89-2.71,8.81V91.48H369.58V41.71H386.2v5.42a19.69,19.69,0,0,1,7-4.64,23.73,23.73,0,0,1,8.82-1.6Q411.26,40.89,416.91,46.39Z"/><path class="cls-1" d="M11.94,186.56A37,37,0,0,1,0,181.42L6,168a38.75,38.75,0,0,0,10,4.59,38.17,38.17,0,0,0,11.2,1.74q10.47,0,10.47-5.23,0-2.76-3-4.09a55.47,55.47,0,0,0-9.59-2.8A91.7,91.7,0,0,1,13,158.88a20.39,20.39,0,0,1-8.36-5.74Q1.09,149.2,1.1,142.49a18.36,18.36,0,0,1,3.22-10.6,21.48,21.48,0,0,1,9.59-7.49,39.63,39.63,0,0,1,15.66-2.75,55.1,55.1,0,0,1,12.48,1.42,38.2,38.2,0,0,1,10.84,4.18l-5.6,13.5a37.37,37.37,0,0,0-17.81-5q-5.43,0-7.9,1.6a4.84,4.84,0,0,0-2.48,4.18c0,1.72,1,3,2.94,3.86a53.14,53.14,0,0,0,9.45,2.66,88.86,88.86,0,0,1,12.17,3.35,21,21,0,0,1,8.36,5.7q3.52,3.9,3.53,10.6a18.09,18.09,0,0,1-3.21,10.47,21.93,21.93,0,0,1-9.64,7.48,39,39,0,0,1-15.61,2.8A59.14,59.14,0,0,1,11.94,186.56Z"/><path class="cls-1" d="M73.64,184.73A24.61,24.61,0,0,1,60,162.23a24.56,24.56,0,0,1,13.63-22.36,31.42,31.42,0,0,1,14.47-3.26,31.63,31.63,0,0,1,14.5,3.26,24.5,24.5,0,0,1,10,9.09,25.2,25.2,0,0,1-10,35.77,31.27,31.27,0,0,1-14.5,3.3A31.09,31.09,0,0,1,73.64,184.73ZM95.58,171q2.94-3.17,2.94-8.77t-2.94-8.63a10.63,10.63,0,0,0-15,0q-2.94,3.12-2.94,8.63T80.53,171a10.52,10.52,0,0,0,15,0Z"/><path class="cls-1" d="M130,186.61a32.61,32.61,0,0,1-9.74-3.72L125.52,171a29.88,29.88,0,0,0,8.08,3.35,36.37,36.37,0,0,0,9.27,1.24,14.72,14.72,0,0,0,6-.88,2.74,2.74,0,0,0,1.79-2.52q0-1.65-2.16-2.34a43.64,43.64,0,0,0-6.84-1.33,68.47,68.47,0,0,1-10.15-1.93,15.75,15.75,0,0,1-7.21-4.41q-3-3.21-3-9a13.59,13.59,0,0,1,2.85-8.49,18.91,18.91,0,0,1,8.31-5.88,35.54,35.54,0,0,1,13.08-2.16,52.52,52.52,0,0,1,10.75,1.11,30.53,30.53,0,0,1,8.9,3.12L160,152.68A29.1,29.1,0,0,0,145.63,149a14.3,14.3,0,0,0-6.06,1,2.88,2.88,0,0,0-1.93,2.53c0,1.16.7,2,2.11,2.43a48,48,0,0,0,7,1.43,75.86,75.86,0,0,1,10.19,2.11,15.55,15.55,0,0,1,7,4.36c2,2.11,3,5.07,3,8.86a13.46,13.46,0,0,1-2.85,8.4,18.58,18.58,0,0,1-8.4,5.83A37.61,37.61,0,0,1,142.32,188,53.55,53.55,0,0,1,130,186.61Z"/><path class="cls-1" d="M208.8,185.19a17.56,17.56,0,0,1-5.37,2.11,29.78,29.78,0,0,1-6.75.73q-9.74,0-15-4.77T176.48,169V152.32h-7.26v-13h7.26v-13h17.44v13h11.39v13H193.92v16.52a5.86,5.86,0,0,0,1.43,4.18,5,5,0,0,0,3.81,1.52,9.23,9.23,0,0,0,5.32-1.56Z"/><path class="cls-1" d="M264.63,166.73H228.45a10.09,10.09,0,0,0,4.27,5.92,14.23,14.23,0,0,0,7.94,2.07,17.29,17.29,0,0,0,6.2-1,18.15,18.15,0,0,0,5.28-3.31l9.18,9.55Q254.06,188,240.11,188a33.86,33.86,0,0,1-15.33-3.3,25.13,25.13,0,0,1-.55-44.81,31.28,31.28,0,0,1,27.54-.23,23.42,23.42,0,0,1,9.6,8.91,26.18,26.18,0,0,1,3.53,13.82C264.9,162.54,264.81,164,264.63,166.73Zm-33-15.42a10.35,10.35,0,0,0-3.45,6.24h20.39a10.35,10.35,0,0,0-3.45-6.24,11,11,0,0,0-13.49,0Z"/><path class="cls-1" d="M320.32,142.12q5.64,5.52,5.64,16.62v28.47H308.52V161.59q0-10.18-8.17-10.19a9.33,9.33,0,0,0-7.21,2.94c-1.81,2-2.71,4.89-2.71,8.81v24.06H273V137.44H289.6v5.42a19.81,19.81,0,0,1,7-4.64,23.65,23.65,0,0,1,8.82-1.61Q314.67,136.61,320.32,142.12Z"/><path class="cls-1" d="M337.9,129.27a8.9,8.9,0,0,1,0-13.22,11,11,0,0,1,7.71-2.67,11.45,11.45,0,0,1,7.72,2.53,8.16,8.16,0,0,1,2.93,6.47,8.91,8.91,0,0,1-2.93,6.84,10.92,10.92,0,0,1-7.72,2.71A11.07,11.07,0,0,1,337.9,129.27Zm-1,8.17h17.45v49.77H336.89Z"/><path class="cls-1" d="M409.29,139.74a22.8,22.8,0,0,1,8.82,8.95,27.32,27.32,0,0,1,3.25,13.54,27.6,27.6,0,0,1-3.25,13.59,23.14,23.14,0,0,1-8.82,9.05A24.49,24.49,0,0,1,396.94,188q-9.82,0-14.69-5.78v5H365.63V119.08h17.45v22.68q5-5.14,13.86-5.15A24.78,24.78,0,0,1,409.29,139.74ZM400.8,171q2.94-3.17,2.94-8.77t-2.94-8.63a10.65,10.65,0,0,0-15.06,0q-2.94,3.12-2.94,8.63t2.94,8.77a10.53,10.53,0,0,0,15.06,0Z"/><path class="cls-1" d="M429.44,119.08h17.45v68.13H429.44Z"/><path class="cls-1" d="M508.78,166.73H472.6a10.09,10.09,0,0,0,4.27,5.92,14.23,14.23,0,0,0,7.94,2.07,17.29,17.29,0,0,0,6.2-1,18.15,18.15,0,0,0,5.28-3.31l9.18,9.55Q498.21,188,484.26,188a33.86,33.86,0,0,1-15.33-3.3,25.13,25.13,0,0,1-.55-44.81,31.28,31.28,0,0,1,27.54-.23,23.42,23.42,0,0,1,9.6,8.91,26.18,26.18,0,0,1,3.53,13.82C509.05,162.54,509,164,508.78,166.73Zm-33-15.42a10.35,10.35,0,0,0-3.45,6.24h20.39a10.35,10.35,0,0,0-3.45-6.24,11,11,0,0,0-13.49,0Z"/><path class="cls-2" d="M512.88,46.78H487.46V71.6H464.29V46.78H438.72v-22h25.57V0h23.17V24.82h25.42Z"/></g></g></svg>