<svg xmlns="http://www.w3.org/2000/svg" viewBox="0 0 504.14 185.28"><defs><style>.cls-1{fill:#0d2b2c;}.cls-2{fill:#068e57;}</style></defs><title>Texto-claro</title><g id="Capa_2" data-name="Capa 2"><g id="Capa_1-2" data-name="Capa 1"><path class="cls-1" d="M11.73,89.29A36.49,36.49,0,0,1,0,84.23L5.87,71.06a37.93,37.93,0,0,0,9.84,4.51,37.54,37.54,0,0,0,11,1.71Q37,77.28,37,72.14c0-1.81-1-3.14-2.94-4a53.85,53.85,0,0,0-9.43-2.75,90.27,90.27,0,0,1-11.91-3.29,20.22,20.22,0,0,1-8.22-5.64Q1.09,52.56,1.08,46A18.16,18.16,0,0,1,4.24,35.54a21.2,21.2,0,0,1,9.43-7.36,39,39,0,0,1,15.39-2.7,53.85,53.85,0,0,1,12.28,1.4A37.69,37.69,0,0,1,52,31L46.48,44.25A36.73,36.73,0,0,0,29,39.38c-3.55,0-6.13.52-7.76,1.58a4.74,4.74,0,0,0-2.44,4.1c0,1.69,1,2.95,2.89,3.79A51.54,51.54,0,0,0,31,51.47a85.87,85.87,0,0,1,12,3.3,20.58,20.58,0,0,1,8.21,5.59q3.48,3.84,3.48,10.43a17.82,17.82,0,0,1-3.16,10.29A21.59,21.59,0,0,1,42,88.43a38.25,38.25,0,0,1-15.34,2.75A58.63,58.63,0,0,1,11.73,89.29Z"/><path class="cls-1" d="M99.46,45.74q6.41,5.55,6.41,17V89.92h-16V83.6q-3.69,7.14-14.44,7.13a22.67,22.67,0,0,1-9.84-2,14.74,14.74,0,0,1-6.27-5.37,14.28,14.28,0,0,1-2.12-7.72,12.54,12.54,0,0,1,5.33-10.79Q67.88,61,79,61h9.75q-.45-7.77-10.38-7.76a23.86,23.86,0,0,0-7.13,1.12,19.07,19.07,0,0,0-6.14,3.12L59.3,45.87a32,32,0,0,1,9.88-4.19,46.67,46.67,0,0,1,11.69-1.49Q93,40.19,99.46,45.74Zm-14,32.72a8,8,0,0,0,3.25-4.24V70h-7.4q-7.48,0-7.49,5a4.37,4.37,0,0,0,1.71,3.61,7.42,7.42,0,0,0,4.7,1.35A9.51,9.51,0,0,0,85.47,78.46Z"/><path class="cls-1" d="M161.24,45.6q5.55,5.41,5.55,16.34v28H149.64V64.74q0-10-8-10a9.14,9.14,0,0,0-7.08,2.89q-2.67,2.88-2.67,8.66V89.92H114.72V41h16.33v5.33a19.37,19.37,0,0,1,6.86-4.56,23.33,23.33,0,0,1,8.67-1.58Q155.69,40.19,161.24,45.6Z"/><path class="cls-1" d="M201.81,88.79a23.14,23.14,0,0,1-9.3-6.9l9.75-11.56q5.06,6.6,10.92,6.59a7.39,7.39,0,0,0,5.91-2.34c1.36-1.57,2-3.85,2-6.86V40.55H199.28V26.74h39.54V66.63q0,12.28-6.19,18.42t-18.18,6.13A32.18,32.18,0,0,1,201.81,88.79Z"/><path class="cls-1" d="M299.56,41V89.92H283.22V84.69a17.54,17.54,0,0,1-6.5,4.51,21.21,21.21,0,0,1-8,1.53q-9.48,0-15.12-5.59t-5.64-16.79V41h17.15V65.55q0,5.51,2.08,8a7.35,7.35,0,0,0,6,2.53,8.57,8.57,0,0,0,6.64-2.84q2.57-2.85,2.57-8.71V41Z"/><path class="cls-1" d="M348,45.74q6.41,5.55,6.4,17V89.92h-16V83.6q-3.7,7.14-14.44,7.13a22.67,22.67,0,0,1-9.84-2,14.62,14.62,0,0,1-6.27-5.37,14.19,14.19,0,0,1-2.12-7.72,12.53,12.53,0,0,1,5.32-10.79Q316.44,61,327.54,61h9.75q-.46-7.77-10.38-7.76a23.93,23.93,0,0,0-7.14,1.12,19,19,0,0,0-6.13,3.12l-5.78-11.65a32.06,32.06,0,0,1,9.88-4.19,46.73,46.73,0,0,1,11.69-1.49Q341.63,40.19,348,45.74ZM334,78.46a8.11,8.11,0,0,0,3.25-4.24V70h-7.41q-7.49,0-7.49,5a4.35,4.35,0,0,0,1.72,3.61,7.39,7.39,0,0,0,4.69,1.35A9.54,9.54,0,0,0,334,78.46Z"/><path class="cls-1" d="M409.81,45.6q5.55,5.41,5.55,16.34v28H398.21V64.74q0-10-8-10a9.16,9.16,0,0,0-7.09,2.89c-1.78,1.92-2.66,4.81-2.66,8.66V89.92H363.28V41h16.34v5.33a19.33,19.33,0,0,1,6.85-4.56,23.33,23.33,0,0,1,8.67-1.58Q404.26,40.19,409.81,45.6Z"/><path class="cls-1" d="M11.73,183.39A36.71,36.71,0,0,1,0,178.33l5.87-13.18a37.94,37.94,0,0,0,9.84,4.52,37.54,37.54,0,0,0,11,1.71q10.29,0,10.29-5.14,0-2.72-2.94-4a53.85,53.85,0,0,0-9.43-2.75,88.61,88.61,0,0,1-11.91-3.3,20,20,0,0,1-8.22-5.64q-3.42-3.87-3.43-10.47a18.16,18.16,0,0,1,3.16-10.42,21.2,21.2,0,0,1,9.43-7.36,39,39,0,0,1,15.39-2.71A54.42,54.42,0,0,1,41.34,121,38,38,0,0,1,52,125.08l-5.51,13.27A36.75,36.75,0,0,0,29,133.47c-3.55,0-6.13.53-7.76,1.58a4.77,4.77,0,0,0-2.44,4.11c0,1.69,1,3,2.89,3.79a52.39,52.39,0,0,0,9.3,2.62,87.42,87.42,0,0,1,12,3.29,20.71,20.71,0,0,1,8.21,5.6q3.48,3.84,3.48,10.42a17.82,17.82,0,0,1-3.16,10.29A21.61,21.61,0,0,1,42,182.53a38.42,38.42,0,0,1-15.34,2.75A58.63,58.63,0,0,1,11.73,183.39Z"/><path class="cls-1" d="M72.38,181.58a24.15,24.15,0,0,1-13.44-22.11,24.09,24.09,0,0,1,13.4-22,30.88,30.88,0,0,1,14.22-3.2,31.19,31.19,0,0,1,14.26,3.2,24,24,0,0,1,9.83,8.94,24.36,24.36,0,0,1,3.52,13,24.63,24.63,0,0,1-3.52,13.09,24.11,24.11,0,0,1-9.83,9,30.71,30.71,0,0,1-14.26,3.25A30.53,30.53,0,0,1,72.38,181.58ZM94,168.09q2.88-3.12,2.88-8.62T94,151a10.49,10.49,0,0,0-14.81,0q-2.88,3.08-2.88,8.49t2.88,8.62a10.37,10.37,0,0,0,14.81,0Z"/><path class="cls-1" d="M127.8,183.43a32.06,32.06,0,0,1-9.57-3.65L123.38,168a29,29,0,0,0,7.94,3.3,35.65,35.65,0,0,0,9.12,1.22,14.63,14.63,0,0,0,5.91-.86,2.69,2.69,0,0,0,1.76-2.48c0-1.09-.71-1.85-2.12-2.31a44.38,44.38,0,0,0-6.73-1.3,67.79,67.79,0,0,1-10-1.9,15.36,15.36,0,0,1-7.08-4.33q-3-3.16-3-8.85a13.4,13.4,0,0,1,2.79-8.35,18.6,18.6,0,0,1,8.17-5.77,34.88,34.88,0,0,1,12.86-2.12,52.13,52.13,0,0,1,10.56,1.08,30.47,30.47,0,0,1,8.76,3.07l-5.15,11.64a28.57,28.57,0,0,0-14.08-3.61,14,14,0,0,0-5.95.95,2.82,2.82,0,0,0-1.9,2.48c0,1.14.69,1.94,2.08,2.39a47.42,47.42,0,0,0,6.86,1.4,75.81,75.81,0,0,1,10,2.08,15.33,15.33,0,0,1,6.9,4.28q2.94,3.12,2.94,8.71a13.26,13.26,0,0,1-2.8,8.26,18.2,18.2,0,0,1-8.26,5.73,36.88,36.88,0,0,1-13.13,2.08A52.86,52.86,0,0,1,127.8,183.43Z"/><path class="cls-1" d="M205.24,182a17,17,0,0,1-5.28,2.08,29.36,29.36,0,0,1-6.63.72q-9.57,0-14.71-4.69t-5.15-14V149.72h-7.13V136.9h7.13V124.18h17.15V136.9h11.19v12.82H190.62V166a5.76,5.76,0,0,0,1.4,4.1,4.86,4.86,0,0,0,3.74,1.49A9.1,9.1,0,0,0,201,170Z"/><path class="cls-1" d="M260.12,163.89H224.56a9.94,9.94,0,0,0,4.19,5.82,14,14,0,0,0,7.81,2,16.9,16.9,0,0,0,6.09-1,17.69,17.69,0,0,0,5.19-3.25l9,9.39q-7.12,7.94-20.85,7.94A33.21,33.21,0,0,1,221,181.58a24.21,24.21,0,0,1-10.07-9,25.87,25.87,0,0,1-.09-26,24.23,24.23,0,0,1,9.62-9,30.8,30.8,0,0,1,27.07-.23,23.07,23.07,0,0,1,9.44,8.75,25.79,25.79,0,0,1,3.47,13.59C260.39,159.77,260.3,161.18,260.12,163.89Zm-32.45-15.16a10.19,10.19,0,0,0-3.38,6.13h20a10.19,10.19,0,0,0-3.38-6.13,10.87,10.87,0,0,0-13.27,0Z"/><path class="cls-1" d="M314.86,139.7q5.55,5.42,5.55,16.34v28H303.26V158.84q0-10-8-10a9.18,9.18,0,0,0-7.09,2.89q-2.65,2.88-2.66,8.66V184H268.33V135.1h16.34v5.32a19.39,19.39,0,0,1,6.86-4.55,23,23,0,0,1,8.66-1.58Q309.31,134.29,314.86,139.7Z"/><path class="cls-1" d="M332.14,127.07a8.75,8.75,0,0,1,0-13,10.86,10.86,0,0,1,7.59-2.62,11.27,11.27,0,0,1,7.58,2.48,8,8,0,0,1,2.89,6.37,8.77,8.77,0,0,1-2.89,6.72,10.74,10.74,0,0,1-7.58,2.66A10.9,10.9,0,0,1,332.14,127.07Zm-1,8H348.3V184H331.15Z"/><path class="cls-1" d="M402.32,137.36a22.29,22.29,0,0,1,8.66,8.8,26.76,26.76,0,0,1,3.21,13.31A27.06,27.06,0,0,1,411,172.83a22.66,22.66,0,0,1-8.66,8.89,24.14,24.14,0,0,1-12.14,3.11q-9.66,0-14.44-5.69V184H359.4v-67h17.15v22.29q5-5.06,13.63-5.05A24.31,24.31,0,0,1,402.32,137.36ZM394,168.09c1.92-2.08,2.89-5,2.89-8.62s-1-6.44-2.89-8.49a10.48,10.48,0,0,0-14.8,0q-2.9,3.08-2.89,8.49t2.89,8.62a10.36,10.36,0,0,0,14.8,0Z"/><path class="cls-1" d="M422.13,117.05h17.15v67H422.13Z"/><path class="cls-1" d="M500.11,163.89H464.55a9.94,9.94,0,0,0,4.19,5.82,14,14,0,0,0,7.81,2,16.9,16.9,0,0,0,6.09-1,17.69,17.69,0,0,0,5.19-3.25l9,9.39q-7.12,7.94-20.85,7.94a33.21,33.21,0,0,1-15.07-3.25,24.21,24.21,0,0,1-10.07-9,25.87,25.87,0,0,1-.09-26,24.23,24.23,0,0,1,9.62-9,30.8,30.8,0,0,1,27.07-.23,23,23,0,0,1,9.43,8.75,25.7,25.7,0,0,1,3.48,13.59C500.38,159.77,500.29,161.18,500.11,163.89Zm-32.45-15.16a10.19,10.19,0,0,0-3.38,6.13h20a10.19,10.19,0,0,0-3.38-6.13,10.87,10.87,0,0,0-13.27,0Z"/><path class="cls-2" d="M504.14,46h-25V70.38H456.38V46H431.24V24.4h25.14V0h22.77V24.4h25Z"/></g></g></svg>