<svg xmlns="http://www.w3.org/2000/svg" xmlns:xlink="http://www.w3.org/1999/xlink" viewBox="0 0 1918 1074"><defs><style>.cls-1{fill:url(#Degradado_sin_nombre_21);}.cls-2{fill:#0d2b2c;}</style><linearGradient id="Degradado_sin_nombre_21" y1="537" x2="1918" y2="537" gradientUnits="userSpaceOnUse"><stop offset="0" stop-color="#b2ffde"/><stop offset="1" stop-color="#deeaac"/></linearGradient></defs><title>Wallpaper-Degradado</title><g id="Capa_2" data-name="Capa 2"><g id="Capa_1-2" data-name="Capa 1"><rect class="cls-1" width="1918" height="1074"/><path class="cls-2" d="M1240.57,418.09c-7-2.62-13.27-5.33-19.78-7.31a100.56,100.56,0,0,0-40.58-4.17,35.23,35.23,0,0,0-7.1,1.59c-3.78,1.24-6.25,3.73-6.3,7.88s2.41,6.59,6,7.54c7.78,2,15.69,3.57,23.52,5.43,11.22,2.67,22.79,4.47,33.55,8.37,24.75,9,34.21,26.1,30.55,51.92-3.19,22.48-17.07,35.6-37.94,42.74-17.19,5.88-35,5.89-52.85,4.68a177.68,177.68,0,0,1-51.6-10.89c-2.71-1-3.84-2.1-2.85-5.23,3.77-11.84,7.23-23.78,10.82-35.67a23.27,23.27,0,0,1,1.16-2.49c3.58,1.55,7,3.06,10.43,4.52,16.89,7.14,34.48,10.77,52.91,9.65a33.32,33.32,0,0,0,10.12-2.36,8.86,8.86,0,0,0,5.87-8.4c0-4-3.11-5.95-6.34-6.77-11-2.83-22.23-5-33.23-7.9-10.09-2.67-20.49-5-29.89-9.26-14.47-6.61-21.37-19.2-22.52-34.55-2.36-31.72,16.41-55.45,48.47-61,29.1-5,57.32-1.51,84.5,9.87,5.59,2.34,5.48,2.41,3.58,8.34-2.92,9.13-5.73,18.29-8.58,27.44C1241.92,413.88,1241.33,415.71,1240.57,418.09Z"/><path class="cls-2" d="M801.08,421.62l-5.15-2.26c-17.59-7.62-35.86-11.27-55.11-8.84-2.09.27-4.55.6-6,1.83a15.53,15.53,0,0,0-5,6.74c-1,3.35,1.19,6.27,4.38,7.52a87.17,87.17,0,0,0,12.62,3.75c12.74,2.9,25.66,5.1,38.25,8.51,13,3.53,24.92,9.52,31.39,22.05,6.37,12.33,5.91,25.47,2.68,38.56-5.52,22.38-21.92,33.73-43.29,38.18-32.41,6.76-64.16,3-94.92-9-2.24-.88-3.57-1.81-2.68-4.61,3.7-11.7,7.21-23.47,10.82-35.2a14.57,14.57,0,0,1,1.12-2.16c6.3,2.5,12.37,5.18,18.62,7.35a114.41,114.41,0,0,0,39.9,6.32,51.22,51.22,0,0,0,12.11-1.78c4.32-1.16,7-4.24,7-8.89-.07-4.34-3.25-6.34-7-7.23-13.14-3.16-26.47-5.66-39.46-9.3-8.68-2.44-17.62-5.28-25.23-9.88-16.43-9.93-20.41-26-18.8-43.76,2.43-26.66,22.22-46.36,50.77-50.15,27.51-3.65,54.35-.73,80,10.12,6,2.54,6,2.56,4.07,8.7q-4.72,15-9.49,30A31.62,31.62,0,0,1,801.08,421.62Z"/><path class="cls-2" d="M1099.17,467.6h-52.9v47.76h-36.48V467.23H956.46V431H1010c0-14.08,0-27.47,0-40.86,0-9.81.09-9.82,9.8-9.84,8.75,0,17.51,0,26.78,0V431h52.58Z"/><path class="cls-2" d="M961,333.66C974.4,324,991,318.41,1008.81,314c-26.19-2.33-48.14,2.24-67.23,13-.63-5.15-1.12-10.17.12-14.79,3.1-11.57,7.06-22.94,10.47-34.43.61-2.07.26-4.37.35-6.56l-1.65-.28-21.06,35.42L908,292.9c5.88,11.94,12.58,22.53,16,33.3,3.55,11.2-2,21.1-8.79,31.19-10.81-12-25.53-19.67-40.6-27.23-7.88-4-15-8.81-22.36-13.29-1.25-.76-2.34-1.66-3.5-2.49a8.42,8.42,0,0,0,2.8,5.28c8.08,7.5,15.79,15.24,24.63,22.31,13.38,10.69,22,26,18.62,35.08-2,5.4.65-1.59-7.81,16.6h0v.07l-.06.13H887v4.22q0,4.68,0,9.35h0q0,21.94-.09,43.89c0,9.27,0,18.55-.54,27.79-.78,12.94-9.6,19.86-22.73,18.6a37.38,37.38,0,0,1-20.89-8.82C836.8,499,831,508.94,825.39,519c-.48.85.12,2.87.92,3.73,6.84,7.29,15,12.59,24.86,15.1a102,102,0,0,0,38.5,2.33c16.24-2.12,29.81-8.87,39-22.86,8.31-12.61,10.2-26.7,10.23-41.21q.07-33.6,0-67.19h0c0-3.73,0-7.45,0-11.17,0-1.27-.1-2.54-.16-3.84h-.48c-8.4-29.93-5.93-22.12-1.69-31.53,7.13-15.8,23.16-23.11,46.8-24.17a41.2,41.2,0,0,0,4.92-.48,29.3,29.3,0,0,0,3.42-1l-.44-1.59Z"/><path class="cls-2" d="M974.09,211.47c5.73,13.85,12.45,26.27,13.2,39.07.86,14.63-7.85,23.59-23.53,29.23-7.22-14.89-18.86-28.81-17.21-44.06.39-3.53,2-7.43,4.81-9.65C958,220.94,965.68,216.75,974.09,211.47Z"/><path class="cls-2" d="M1035.2,277.73c-5.06,7.2-8.67,14.31-14.56,20.2-7.69,7.69-28.59,9-42.07,3.78-3.78-1.46-5-3.39-4.42-6.06,2.43-12.13,12.93-19.11,30.59-19.8,5.4-.22,11,.07,16.49.39C1025.65,276.5,1030.1,277.17,1035.2,277.73Z"/><path class="cls-2" d="M845.25,226.9c15,7.84,28.64,15.06,37.6,27.74,5.57,7.9,7.5,16,4.6,23.92-1.86,5.13-4.78,5.85-10.78,3a54,54,0,0,1-22.18-19.65C847.38,251,845.89,239.61,845.25,226.9Z"/><path class="cls-2" d="M861.28,286.77c17,3.45,33.76,6.17,44.48,17.93a19.85,19.85,0,0,1,4.31,7.23c3,9.52-7.09,14.77-20,10.32C871.16,315.73,860.93,305.87,861.28,286.77Z"/><path class="cls-2" d="M1055.6,320.05c-9.8,18.37-30.32,25.33-51.83,19.05-5.8-1.69-7.9-3.73-6.88-7.83,2.58-10.4,11.31-16.13,26.69-16.38C1034.4,314.72,1045.05,316.75,1055.6,320.05Z"/><path class="cls-2" d="M802.71,261.1c13.51,4.81,25.12,10.37,34.28,19.07,7,6.65,10,13.84,9.24,21.4-.51,5.33-1.45,5.94-8.68,4.33-15.26-3.4-26.28-10.93-32.09-22.78C801.9,275.85,801.64,268.72,802.71,261.1Z"/><path class="cls-2" d="M970.08,368c-4.6-3-9.33-5.94-13.75-9.08-3.59-2.55-3.5-4.55.7-6.32,13.11-5.5,27.06-5.61,41.87,1.13,6.21,2.83,11.75,6.5,17.65,9.73,3.61,2,3.53,3.64.07,4.68C1002.22,372.48,987.37,374.79,970.08,368Z"/><path class="cls-2" d="M811.94,323.32c16.69,0,30.75.29,44,7.27,7.6,4,11.9,9.08,13.64,15.23,1,3.66-.5,5.43-5.86,5.74-17.32,1-30.59-5.13-41.32-15C818.45,332.84,816,328.46,811.94,323.32Z"/><path class="cls-2" d="M921.83,241.41c3.43,14.37,4.9,27.82-2.88,41.38-6.19-6.63-12.87-12.09-16.85-18.76a11,11,0,0,1,2.26-13.36C909.19,246.38,912.91,240.91,921.83,241.41Z"/></g></g></svg>