<?xml version="1.0" ?><!-- Uploaded to: SVG Repo, www.svgrepo.com, Generator: SVG Repo Mixer Tools -->
<svg fill="#000000" width="800px" height="800px" viewBox="0 0 100 100" data-name="Layer 1" id="Layer_1" xmlns="http://www.w3.org/2000/svg"><title/><path d="M72.88,47.65A12.35,12.35,0,0,1,56.32,59.29l-.48-8L60,45a5.7,5.7,0,0,0,.85-4.27,5.71,5.71,0,0,0-5.58-4.58,5.68,5.68,0,0,0-4.74,2.54l-1.36,2-1.68-2.52a5.7,5.7,0,0,0-10.32,2,5.64,5.64,0,0,0,.85,4.28l4.42,6.63-.36,6a15,15,0,0,1-2.66-29.85,14.15,14.15,0,0,1,26.7,9.37A12.39,12.39,0,0,1,72.88,47.65ZM56.23,40.44a1.7,1.7,0,0,0-2.34.47L49.2,48l-5-7.52a1.69,1.69,0,0,0-2.82,1.88l5.17,7.75L44.62,82h9.07L51.76,50.2l4.94-7.41A1.69,1.69,0,0,0,56.23,40.44Z"/></svg>